<?xml version="1.0" encoding="UTF-8" standalone="no"?>
<svg
   xmlns:dc="http://purl.org/dc/elements/1.1/"
   xmlns:cc="http://creativecommons.org/ns#"
   xmlns:rdf="http://www.w3.org/1999/02/22-rdf-syntax-ns#"
   xmlns:svg="http://www.w3.org/2000/svg"
   xmlns="http://www.w3.org/2000/svg"
   xmlns:xlink="http://www.w3.org/1999/xlink"
   xmlns:sodipodi="http://sodipodi.sourceforge.net/DTD/sodipodi-0.dtd"
   xmlns:inkscape="http://www.inkscape.org/namespaces/inkscape"
   width="67.721642mm"
   height="23.357315mm"
   viewBox="0 0 67.721643 23.357315"
   version="1.1"
   id="svg1112"
   inkscape:version="1.0.1 (3bc2e813f5, 2020-09-07)"
   sodipodi:docname="logov4.svg">
  <defs
     id="defs1106">
    <linearGradient
       inkscape:collect="always"
       xlink:href="#linearGradient1524"
       id="linearGradient1534"
       gradientUnits="userSpaceOnUse"
       x1="57.502937"
       y1="170.79172"
       x2="90.045692"
       y2="158.54555"
       gradientTransform="translate(53.851672,-29.644246)" />
    <linearGradient
       inkscape:collect="always"
       id="linearGradient1524">
      <stop
         style="stop-color:#aaccff;stop-opacity:1"
         offset="0"
         id="stop1520" />
      <stop
         style="stop-color:#d5e5ff;stop-opacity:0"
         offset="1"
         id="stop1522" />
    </linearGradient>
    <linearGradient
       inkscape:collect="always"
       xlink:href="#linearGradient1524"
       id="linearGradient1797"
       gradientUnits="userSpaceOnUse"
       x1="57.502937"
       y1="170.79172"
       x2="90.045692"
       y2="158.54555"
       gradientTransform="translate(53.851672,-29.644246)" />
    <linearGradient
       inkscape:collect="always"
       xlink:href="#linearGradient1524"
       id="linearGradient1799"
       gradientUnits="userSpaceOnUse"
       x1="57.502937"
       y1="170.79172"
       x2="90.045692"
       y2="158.54555"
       gradientTransform="translate(53.851672,-29.644246)" />
    <linearGradient
       inkscape:collect="always"
       xlink:href="#linearGradient1524"
       id="linearGradient1801"
       gradientUnits="userSpaceOnUse"
       x1="57.502937"
       y1="170.79172"
       x2="90.045692"
       y2="158.54555"
       gradientTransform="translate(53.851672,-29.644246)" />
    <linearGradient
       inkscape:collect="always"
       xlink:href="#linearGradient1524"
       id="linearGradient1803"
       gradientUnits="userSpaceOnUse"
       x1="57.502937"
       y1="170.79172"
       x2="90.045692"
       y2="158.54555"
       gradientTransform="translate(53.851672,-29.644246)" />
  </defs>
  <sodipodi:namedview
     id="base"
     pagecolor="#ffffff"
     bordercolor="#666666"
     borderopacity="1.0"
     inkscape:pageopacity="0.0"
     inkscape:pageshadow="2"
     inkscape:zoom="2.8"
     inkscape:cx="88.30586"
     inkscape:cy="19.32117"
     inkscape:document-units="mm"
     inkscape:current-layer="layer1"
     inkscape:document-rotation="0"
     showgrid="false"
     fit-margin-top="0"
     fit-margin-left="0"
     fit-margin-right="0"
     fit-margin-bottom="0"
     inkscape:window-width="1920"
     inkscape:window-height="1017"
     inkscape:window-x="1072"
     inkscape:window-y="224"
     inkscape:window-maximized="1"
     showguides="true"
     inkscape:guide-bbox="true"
     inkscape:snap-bbox="true"
     inkscape:snap-intersection-paths="true"
     inkscape:object-paths="true"
     inkscape:snap-smooth-nodes="true"
     inkscape:bbox-paths="true"
     inkscape:bbox-nodes="true"
     inkscape:snap-bbox-edge-midpoints="true"
     inkscape:snap-bbox-midpoints="true" />
  <metadata
     id="metadata1109">
    <rdf:RDF>
      <cc:Work
         rdf:about="">
        <dc:format>image/svg+xml</dc:format>
        <dc:type
           rdf:resource="http://purl.org/dc/dcmitype/StillImage" />
        <dc:title></dc:title>
      </cc:Work>
    </rdf:RDF>
  </metadata>
  <g
     inkscape:label="Layer 1"
     inkscape:groupmode="layer"
     id="layer1"
     transform="translate(-67.341731,-128.1719)">
    <path
       id="path1078"
       style="font-style:normal;font-variant:normal;font-weight:normal;font-stretch:normal;font-size:11.7701px;line-height:1.25;font-family:'Britannic Bold';-inkscape-font-specification:'Britannic Bold, ';text-align:center;letter-spacing:0px;word-spacing:0px;text-anchor:middle;fill:#003380;fill-opacity:1;stroke:#ffffff;stroke-width:3.77953;stroke-miterlimit:4;stroke-dasharray:none;stroke-opacity:1;paint-order:markers stroke fill"
       d="M 49.789062 18.914062 C 45.676478 18.914062 42.04861 20.375628 38.90625 23.300781 C 35.763888 26.211446 33.722511 30.013248 32.78125 34.705078 C 32.145373 37.875181 32.070059 40.531528 32.541016 42.685547 C 35.477017 43.891778 38.009469 45.609374 40.244141 47.333984 C 41.254325 48.113607 42.220435 48.857254 43.167969 49.535156 C 46.593803 49.505967 49.505619 48.650568 51.896484 46.957031 C 54.329281 45.233819 55.834825 42.930542 56.414062 40.048828 C 56.515429 39.498554 56.617383 38.846758 56.71875 38.09375 L 53.242188 37.138672 C 53.169794 38.412977 53.069796 39.375703 52.939453 40.027344 C 52.533988 42.069171 51.620304 43.76965 50.201172 45.130859 C 48.796523 46.492069 47.24 47.173828 45.53125 47.173828 C 41.389704 47.173828 40.116082 43.184089 41.708984 35.205078 C 43.577023 25.92281 46.365146 21.28125 50.072266 21.28125 C 53.576651 21.28125 54.887245 23.468556 54.003906 27.841797 C 53.91703 28.319655 53.764097 28.992465 53.546875 29.861328 L 57.566406 28.167969 C 58.797285 21.999074 56.204115 18.914062 49.789062 18.914062 z "
       transform="matrix(0.26458333,0,0,0.26458333,67.341731,128.1719)" />
    <path
       style="color:#000000;font-style:normal;font-variant:normal;font-weight:normal;font-stretch:normal;font-size:medium;line-height:normal;font-family:sans-serif;font-variant-ligatures:normal;font-variant-position:normal;font-variant-caps:normal;font-variant-numeric:normal;font-variant-alternates:normal;font-variant-east-asian:normal;font-feature-settings:normal;font-variation-settings:normal;text-indent:0;text-align:start;text-decoration:none;text-decoration-line:none;text-decoration-style:solid;text-decoration-color:#000000;letter-spacing:normal;word-spacing:normal;text-transform:none;writing-mode:lr-tb;direction:ltr;text-orientation:mixed;dominant-baseline:auto;baseline-shift:baseline;text-anchor:start;white-space:normal;shape-padding:0;shape-margin:0;inline-size:0;clip-rule:nonzero;display:inline;overflow:visible;visibility:visible;isolation:auto;mix-blend-mode:normal;color-interpolation:sRGB;color-interpolation-filters:linearRGB;solid-color:#000000;solid-opacity:1;vector-effect:none;fill:url(#linearGradient1797);fill-opacity:1;fill-rule:nonzero;stroke:none;stroke-width:1.13;stroke-linecap:square;stroke-linejoin:miter;stroke-miterlimit:4;stroke-dasharray:9.04, 2.25999999999999979, 1.12999999999999989, 2.25999999999999979;stroke-dashoffset:9.04;stroke-opacity:1;color-rendering:auto;image-rendering:auto;shape-rendering:auto;text-rendering:auto;enable-background:accumulate;stop-color:#000000;stop-opacity:1;opacity:1"
       d="M 126.97852 128.20703 C 126.03321 128.35205 125.3013 128.89424 124.68359 129.36719 C 123.96575 129.91233 123.33703 130.45942 122.64258 130.68945 L 122.64062 130.68945 L 122.63867 130.68945 C 122.24371 130.82317 121.78555 130.81556 121.36133 130.68359 L 121.20898 130.63477 L 121.10547 130.59766 L 120.57617 130.40234 L 120.1875 131.46289 L 120.7168 131.6582 L 120.8418 131.70312 L 121.02344 131.76172 L 121.02539 131.76172 C 121.65242 131.95678 122.34622 131.9811 123 131.75977 C 123.98552 131.43251 124.7024 130.77382 125.36914 130.26758 L 125.36914 130.26562 C 125.96466 129.80967 126.55013 129.41594 127.15039 129.32422 L 127.15234 129.32422 L 127.1543 129.32422 C 127.68574 129.24046 128.28644 129.42758 128.86914 129.71875 L 129.375 129.9707 L 129.87891 128.95898 L 129.375 128.70703 C 128.69752 128.3685 127.87438 128.06682 126.98047 128.20703 L 126.97852 128.20703 z M 117.46484 128.97461 L 117.16016 130.0625 L 117.70508 130.21484 C 118.01098 130.30073 118.32009 130.44132 118.64062 130.60547 L 119.14453 130.86328 L 119.66016 129.85742 L 119.15625 129.59961 C 118.8072 129.42085 118.42993 129.24492 118.00977 129.12695 L 117.46484 128.97461 z M 115.9043 129.16992 L 115.4082 129.43945 C 114.22536 130.08127 113.42516 131.01546 112.46875 131.42773 C 112.46814 131.42799 112.46741 131.42748 112.4668 131.42773 C 112.46607 131.42805 112.46557 131.42937 112.46484 131.42969 C 112.24606 131.52096 112.0222 131.57893 111.80469 131.5957 L 111.24023 131.63867 L 111.32812 132.76562 L 111.89062 132.72266 C 112.2502 132.69493 112.59224 132.60038 112.90625 132.46875 L 112.9082 132.46875 L 112.91016 132.4668 C 114.18583 131.91882 115.01169 130.94124 115.94727 130.43359 L 116.44336 130.16406 L 115.9043 129.16992 z M 130.82422 129.51172 L 130.38867 130.55469 L 130.91016 130.77344 C 131.29448 130.93396 131.7178 131.06231 132.17578 131.0957 L 132.74023 131.13672 L 132.82227 130.00977 L 132.25781 129.96875 C 131.96337 129.94728 131.65491 129.85961 131.3457 129.73047 L 130.82422 129.51172 z "
       id="path930" />
    <path
       style="color:#000000;font-style:normal;font-variant:normal;font-weight:normal;font-stretch:normal;font-size:medium;line-height:normal;font-family:sans-serif;font-variant-ligatures:normal;font-variant-position:normal;font-variant-caps:normal;font-variant-numeric:normal;font-variant-alternates:normal;font-variant-east-asian:normal;font-feature-settings:normal;font-variation-settings:normal;text-indent:0;text-align:start;text-decoration:none;text-decoration-line:none;text-decoration-style:solid;text-decoration-color:#000000;letter-spacing:normal;word-spacing:normal;text-transform:none;writing-mode:lr-tb;direction:ltr;text-orientation:mixed;dominant-baseline:auto;baseline-shift:baseline;text-anchor:start;white-space:normal;shape-padding:0;shape-margin:0;inline-size:0;clip-rule:nonzero;display:inline;overflow:visible;visibility:visible;isolation:auto;mix-blend-mode:normal;color-interpolation:sRGB;color-interpolation-filters:linearRGB;solid-color:#000000;solid-opacity:1;vector-effect:none;fill:url(#linearGradient1799);fill-opacity:1;fill-rule:nonzero;stroke:none;stroke-width:1.13;stroke-linecap:square;stroke-linejoin:miter;stroke-miterlimit:4;stroke-dasharray:9.04, 2.25999999999999979, 1.12999999999999989, 2.25999999999999979;stroke-dashoffset:2.26;stroke-opacity:1;color-rendering:auto;image-rendering:auto;shape-rendering:auto;text-rendering:auto;enable-background:accumulate;stop-color:#000000;stop-opacity:1;opacity:1"
       d="M 127.26562 130.95508 L 126.70508 131.02734 L 126.85352 132.14844 L 127.41406 132.07422 C 127.57091 132.05354 127.73621 132.05514 127.9043 132.07617 C 128.54052 132.16007 129.17619 132.51278 129.86328 132.89062 C 130.51199 133.24763 131.23634 133.67686 132.11914 133.82031 C 132.74753 133.92619 133.38181 133.82224 133.94141 133.57031 L 134.45508 133.33984 L 133.99219 132.30859 L 133.47656 132.54102 C 133.10383 132.70881 132.6861 132.77216 132.30273 132.70703 L 132.30078 132.70703 L 132.29883 132.70508 C 131.68355 132.6051 131.07031 132.26477 130.4082 131.90039 C 129.7358 131.53062 128.97887 131.07746 128.05078 130.95508 L 128.04883 130.95508 C 127.79501 130.92308 127.53078 130.92012 127.26562 130.95508 z M 125.44727 131.71094 L 124.99609 132.05078 C 124.68374 132.28661 124.39346 132.52354 124.10547 132.73633 L 123.65039 133.07227 L 124.32227 133.98242 L 124.77734 133.64648 C 125.0953 133.41156 125.38888 133.17122 125.67773 132.95312 L 126.12695 132.61328 L 125.44727 131.71094 z M 116.50195 131.8418 L 116.35938 131.88281 L 115.81641 132.03711 L 116.12305 133.12305 L 116.66797 132.9707 L 116.79688 132.93359 C 117.1535 132.83836 117.55904 132.86063 117.94531 132.97852 L 117.94727 132.97852 C 118.71441 133.21134 119.44999 133.72509 120.32812 134.15234 C 120.93374 134.44989 121.64997 134.72324 122.44727 134.66797 L 123.01172 134.62891 L 122.93359 133.50195 L 122.36914 133.54102 C 121.88518 133.57457 121.35548 133.39777 120.82812 133.13867 L 120.82617 133.13672 C 120.05943 132.76384 119.27312 132.20125 118.27539 131.89844 C 117.72061 131.72913 117.10619 131.68148 116.50586 131.8418 L 116.50195 131.8418 z "
       id="path926" />
    <path
       style="color:#000000;font-style:normal;font-variant:normal;font-weight:normal;font-stretch:normal;font-size:medium;line-height:normal;font-family:sans-serif;font-variant-ligatures:normal;font-variant-position:normal;font-variant-caps:normal;font-variant-numeric:normal;font-variant-alternates:normal;font-variant-east-asian:normal;font-feature-settings:normal;font-variation-settings:normal;text-indent:0;text-align:start;text-decoration:none;text-decoration-line:none;text-decoration-style:solid;text-decoration-color:#000000;letter-spacing:normal;word-spacing:normal;text-transform:none;writing-mode:lr-tb;direction:ltr;text-orientation:mixed;dominant-baseline:auto;baseline-shift:baseline;text-anchor:start;white-space:normal;shape-padding:0;shape-margin:0;inline-size:0;clip-rule:nonzero;display:inline;overflow:visible;visibility:visible;isolation:auto;mix-blend-mode:normal;color-interpolation:sRGB;color-interpolation-filters:linearRGB;solid-color:#000000;solid-opacity:1;vector-effect:none;fill:url(#linearGradient1801);fill-opacity:1;fill-rule:nonzero;stroke:none;stroke-width:1.13;stroke-linecap:square;stroke-linejoin:miter;stroke-miterlimit:4;stroke-dasharray:9.04, 2.25999999999999979, 1.12999999999999989, 2.25999999999999979;stroke-dashoffset:9.04;stroke-opacity:1;color-rendering:auto;image-rendering:auto;shape-rendering:auto;text-rendering:auto;enable-background:accumulate;stop-color:#000000;stop-opacity:1;opacity:1"
       d="M 127.51953 133.70703 C 126.8299 133.78532 126.23915 134.09388 125.74023 134.42773 C 124.91598 134.97669 124.26351 135.61393 123.54492 136 C 123.19291 136.1892 122.81732 136.30312 122.46484 136.30078 L 122.46289 136.30078 L 122.46094 136.30078 C 122.3126 136.30068 122.15987 136.28287 122.00586 136.25 L 121.45312 136.13281 L 121.21875 137.23828 L 121.76953 137.35547 C 121.99196 137.40294 122.22414 137.43147 122.46094 137.43164 C 123.0542 137.43474 123.60507 137.25141 124.08008 136.99609 C 124.9873 136.50868 125.66259 135.83625 126.36719 135.36719 L 126.36914 135.36719 C 126.7897 135.08576 127.22568 134.87584 127.64844 134.82812 L 127.65039 134.82812 C 128.03742 134.78229 128.46754 134.87332 128.88477 135.04492 L 129.4082 135.25977 L 129.83789 134.21484 L 129.31445 134 C 128.77988 133.78014 128.16654 133.63158 127.52148 133.70703 L 127.51953 133.70703 z M 130.85547 134.79883 L 130.34961 135.80859 L 130.85352 136.0625 C 131.21009 136.24115 131.59792 136.40843 132.02344 136.51367 L 132.57227 136.65039 L 132.8418 135.55273 L 132.29492 135.41797 C 131.98829 135.34213 131.67736 135.21107 131.36133 135.05273 L 130.85547 134.79883 z "
       id="path934" />
    <path
       style="color:#000000;font-style:normal;font-variant:normal;font-weight:normal;font-stretch:normal;font-size:medium;line-height:normal;font-family:sans-serif;font-variant-ligatures:normal;font-variant-position:normal;font-variant-caps:normal;font-variant-numeric:normal;font-variant-alternates:normal;font-variant-east-asian:normal;font-feature-settings:normal;font-variation-settings:normal;text-indent:0;text-align:start;text-decoration:none;text-decoration-line:none;text-decoration-style:solid;text-decoration-color:#000000;letter-spacing:normal;word-spacing:normal;text-transform:none;writing-mode:lr-tb;direction:ltr;text-orientation:mixed;dominant-baseline:auto;baseline-shift:baseline;text-anchor:start;white-space:normal;shape-padding:0;shape-margin:0;inline-size:0;clip-rule:nonzero;display:inline;overflow:visible;visibility:visible;isolation:auto;mix-blend-mode:normal;color-interpolation:sRGB;color-interpolation-filters:linearRGB;solid-color:#000000;solid-opacity:1;vector-effect:none;fill:url(#linearGradient1803);fill-opacity:1;fill-rule:nonzero;stroke:none;stroke-width:1.13;stroke-linecap:square;stroke-linejoin:miter;stroke-miterlimit:4;stroke-dasharray:9.04, 2.25999999999999979, 1.12999999999999989, 2.25999999999999979;stroke-dashoffset:4.52;stroke-opacity:1;color-rendering:auto;image-rendering:auto;shape-rendering:auto;text-rendering:auto;enable-background:accumulate;stop-color:#000000;stop-opacity:1;opacity:1"
       d="M 128.0918 136.38867 L 127.88086 137.5 L 128.43555 137.60547 L 128.54688 137.62695 L 128.66992 137.65625 C 129.30464 137.82743 129.92946 138.21199 130.62305 138.58594 C 131.19712 138.89693 131.84503 139.23433 132.60938 139.34375 L 133.16797 139.42383 L 133.32812 138.30469 L 132.76953 138.22461 C 132.24791 138.14994 131.71707 137.89243 131.16211 137.5918 L 131.16016 137.5918 C 130.51176 137.24229 129.81686 136.79424 128.96484 136.56445 L 128.95703 136.5625 L 128.7832 136.52148 L 128.64648 136.49414 L 128.0918 136.38867 z M 126.57617 136.79102 L 126.09766 137.09375 C 125.74941 137.31354 125.43556 137.5557 125.13672 137.78906 L 124.69141 138.13672 L 125.38672 139.02734 L 125.83203 138.67969 C 126.12663 138.44964 126.41208 138.23128 126.70117 138.04883 L 127.17969 137.74805 L 126.57617 136.79102 z M 119.7207 137.81445 L 119.17188 138.80469 L 119.66602 139.07812 L 120.02539 139.27539 L 120.02539 139.27734 C 120.60043 139.5938 121.23616 139.95132 121.99219 140.11328 C 122.59041 140.2454 123.22053 140.20357 123.79688 139.97852 L 124.32422 139.77148 L 123.91211 138.71875 L 123.38672 138.92578 C 123.02765 139.06599 122.61782 139.09402 122.23633 139.00977 L 122.23438 139.00977 L 122.23242 139.00977 C 121.69133 138.8945 121.14859 138.60426 120.57227 138.28711 L 120.57031 138.28711 L 120.21484 138.08984 L 119.7207 137.81445 z "
       id="path938" />
    <path
       style="color:#000000;font-style:normal;font-variant:normal;font-weight:normal;font-stretch:normal;font-size:medium;line-height:normal;font-family:sans-serif;font-variant-ligatures:normal;font-variant-position:normal;font-variant-caps:normal;font-variant-numeric:normal;font-variant-alternates:normal;font-variant-east-asian:normal;font-feature-settings:normal;font-variation-settings:normal;text-indent:0;text-align:start;text-decoration:none;text-decoration-line:none;text-decoration-style:solid;text-decoration-color:#000000;letter-spacing:normal;word-spacing:normal;text-transform:none;writing-mode:lr-tb;direction:ltr;text-orientation:mixed;dominant-baseline:auto;baseline-shift:baseline;text-anchor:start;white-space:normal;shape-padding:0;shape-margin:0;inline-size:0;clip-rule:nonzero;display:inline;overflow:visible;visibility:visible;isolation:auto;mix-blend-mode:normal;color-interpolation:sRGB;color-interpolation-filters:linearRGB;solid-color:#000000;solid-opacity:1;vector-effect:none;fill:url(#linearGradient1534);fill-opacity:1;fill-rule:nonzero;stroke:none;stroke-width:1.13;stroke-linecap:square;stroke-linejoin:miter;stroke-miterlimit:4;stroke-dasharray:9.04, 2.25999999999999979, 1.12999999999999989, 2.25999999999999979;stroke-dashoffset:9.266;stroke-opacity:1;color-rendering:auto;image-rendering:auto;shape-rendering:auto;text-rendering:auto;enable-background:accumulate;stop-color:#000000;stop-opacity:1;opacity:1"
       d="M 118.59766 140.05273 L 118.22852 141.12109 L 118.76367 141.30469 C 118.9356 141.3639 119.11062 141.43913 119.29102 141.52539 L 119.52734 141.64453 L 119.70898 141.74023 L 120.20703 142.00391 L 120.73633 141.00586 L 120.23828 140.74219 L 120.04297 140.63867 L 119.7832 140.50781 L 119.7793 140.50586 C 119.57646 140.40887 119.36081 140.31552 119.13086 140.23633 L 118.59766 140.05273 z "
       id="path942" />
    <g
       id="g859"
       style="opacity:1">
      <path
         style="color:#000000;font-style:normal;font-variant:normal;font-weight:normal;font-stretch:normal;font-size:medium;line-height:normal;font-family:sans-serif;font-variant-ligatures:normal;font-variant-position:normal;font-variant-caps:normal;font-variant-numeric:normal;font-variant-alternates:normal;font-variant-east-asian:normal;font-feature-settings:normal;font-variation-settings:normal;text-indent:0;text-align:start;text-decoration:none;text-decoration-line:none;text-decoration-style:solid;text-decoration-color:#000000;letter-spacing:normal;word-spacing:normal;text-transform:none;writing-mode:lr-tb;direction:ltr;text-orientation:mixed;dominant-baseline:auto;baseline-shift:baseline;text-anchor:start;white-space:normal;shape-padding:0;shape-margin:0;inline-size:0;clip-rule:nonzero;display:inline;overflow:visible;visibility:visible;isolation:auto;mix-blend-mode:normal;color-interpolation:sRGB;color-interpolation-filters:linearRGB;solid-color:#000000;solid-opacity:1;vector-effect:none;fill:#ffffff;fill-opacity:1;fill-rule:nonzero;stroke:none;stroke-width:1;stroke-linecap:butt;stroke-linejoin:miter;stroke-miterlimit:4;stroke-dasharray:none;stroke-dashoffset:0;stroke-opacity:1.0;paint-order:stroke fill markers;color-rendering:auto;image-rendering:auto;shape-rendering:auto;text-rendering:auto;enable-background:accumulate;stop-color:#000000;stop-opacity:1;"
         d="m 74.001953,139.94922 c 1.365068,0.0204 2.342779,0.73898 3.376953,1.53711 1.034174,0.79813 2.130766,1.69852 3.642578,1.66015 0.07441,-2.3e-4 0.14898,1.9e-4 0.22461,0 L 121,143.07812 c 0.37366,-9.9e-4 0.74884,-0.001 1.12305,-0.002 h 0.0293 l 0.0293,-0.002 c 1.62811,-0.19803 2.7438,-1.07671 3.64258,-1.82227 0.89877,-0.74556 1.56251,-1.30244 2.32031,-1.27929 h 0.0156 c 1.9126,0.002 4.07523,1.14004 5.13476,2.74414 l -2.64453,-0.70703 c -0.63714,-0.17071 -1.27144,0.11348 -1.75,0.57617 -0.47856,0.46269 -0.85166,1.12473 -1.06055,1.90429 l -0.20703,0.77344 c -0.20887,0.77953 -0.21821,1.53978 -0.0352,2.17969 0.18305,0.63991 0.59142,1.20234 1.22851,1.37305 l 2.83399,0.75976 c -0.84139,0.5517 -1.77926,0.93551 -2.79688,0.93555 h -0.0215 l -0.0215,0.002 c -1.45104,0.12542 -2.44317,-0.50022 -3.46875,-1.27344 -1.02558,-0.77321 -2.04528,-1.72533 -3.47461,-1.88671 l -0.0273,-0.002 H 121 h -0.002 l -39.751956,0.0254 c -0.245713,1e-5 -0.490813,8e-5 -0.736328,0 h -0.01953 l -0.01953,0.002 c -1.718299,0.1317 -2.890652,1.02067 -3.822265,1.79101 -0.931614,0.77034 -1.612051,1.35965 -2.388672,1.33594 h -0.0059 -0.0078 c -1.913453,-0.002 -4.079741,-1.14067 -5.138672,-2.74609 l 2.646484,0.70898 c 0.637025,0.17069 1.273497,-0.11358 1.751953,-0.57617 0.478456,-0.46259 0.851676,-1.12476 1.060547,-1.9043 l 0.207032,-0.77344 c 0.208876,-0.77952 0.216277,-1.53988 0.0332,-2.17968 -0.183075,-0.63981 -0.591522,-1.20236 -1.228516,-1.37305 l -2.833984,-0.75977 c 0.841568,-0.55214 1.781012,-0.93551 2.798828,-0.93554 h 0.02148 l 0.02148,-0.002 c 0.14229,-0.0125 0.280247,-0.0174 0.416015,-0.0156 z"
         id="path867" />
      <path
         id="path863"
         style="color:#000000;font-style:normal;font-variant:normal;font-weight:normal;font-stretch:normal;font-size:medium;line-height:normal;font-family:sans-serif;font-variant-ligatures:normal;font-variant-position:normal;font-variant-caps:normal;font-variant-numeric:normal;font-variant-alternates:normal;font-variant-east-asian:normal;font-feature-settings:normal;font-variation-settings:normal;text-indent:0;text-align:start;text-decoration:none;text-decoration-line:none;text-decoration-style:solid;text-decoration-color:#000000;letter-spacing:normal;word-spacing:normal;text-transform:none;writing-mode:lr-tb;direction:ltr;text-orientation:mixed;dominant-baseline:auto;baseline-shift:baseline;text-anchor:start;white-space:normal;shape-padding:0;shape-margin:0;inline-size:0;clip-rule:nonzero;display:inline;overflow:visible;visibility:visible;isolation:auto;mix-blend-mode:normal;color-interpolation:sRGB;color-interpolation-filters:linearRGB;solid-color:#000000;solid-opacity:1;vector-effect:none;fill:#002255;fill-opacity:1;fill-rule:nonzero;stroke:none;stroke-width:3.77953;stroke-linecap:butt;stroke-linejoin:miter;stroke-miterlimit:4;stroke-dasharray:none;stroke-dashoffset:0;stroke-opacity:1;paint-order:stroke fill markers;color-rendering:auto;image-rendering:auto;shape-rendering:auto;text-rendering:auto;enable-background:accumulate;stop-color:#000000;stop-opacity:1"
         d="M 25.201172 42.621094 C 24.629288 42.613535 24.040982 42.632256 23.435547 42.685547 C 17.802509 42.685736 12.391412 44.901706 8.3535156 48.861328 L 23.082031 52.808594 C 26.264798 53.661444 27.683123 58.617195 26.261719 63.921875 L 25.478516 66.849609 C 24.057145 72.154365 20.350743 75.737578 17.167969 74.884766 L 2.828125 71.042969 C 5.6618258 80.115158 16.657185 86.289632 26.091797 86.300781 C 33.802634 86.536246 37.919456 75.382603 49.765625 74.474609 C 50.694327 74.474912 51.622412 74.474647 52.550781 74.474609 L 202.80078 74.376953 L 205.90625 74.376953 C 215.19603 75.425848 220.29018 87.383381 232.52148 86.326172 C 238.15449 86.325983 243.56562 84.111928 247.60352 80.152344 L 232.875 76.205078 C 229.69222 75.352266 228.27398 70.394448 229.69531 65.089844 L 230.47852 62.164062 C 231.89988 56.859382 235.60824 53.274216 238.79102 54.126953 L 253.12891 57.96875 C 250.29517 48.896523 239.29984 42.723889 229.86523 42.712891 L 229.86523 42.710938 C 222.34277 42.481142 218.2377 53.0837 207.04297 54.445312 C 205.62886 54.447316 204.21482 54.447392 202.80078 54.451172 L 126.79102 54.580078 L 126.03906 58.339844 L 116.56055 58.339844 L 114.25781 58.339844 L 115.00391 54.601562 L 52.550781 54.707031 C 52.251934 54.707749 51.953125 54.707964 51.654297 54.708984 C 41.795138 54.959189 36.829028 42.797094 25.201172 42.623047 L 25.201172 42.621094 z "
         transform="matrix(0.26458333,0,0,0.26458333,67.341731,128.1719)" />
    </g>
    <path
       d="m 86.354213,135.20495 q 2.87356,0 2.264365,3.03448 -0.603448,3.03447 -3.477007,3.03447 -2.879307,0 -2.275859,-3.03447 0.609194,-3.03448 3.488501,-3.03448 z m -0.109195,0.51149 q -0.695402,0 -1.201148,2.52299 -0.505747,2.52298 0.189655,2.52298 0.701148,0 1.206895,-2.52298 0.505746,-2.52299 -0.195402,-2.52299 z"
       style="font-style:normal;font-variant:normal;font-weight:normal;font-stretch:normal;font-size:11.7701px;line-height:1.25;font-family:'Britannic Bold';-inkscape-font-specification:'Britannic Bold, ';text-align:center;letter-spacing:0px;word-spacing:0px;text-anchor:middle;fill:#003380;fill-opacity:1;stroke:#ffffff;stroke-width:1;stroke-miterlimit:4;stroke-dasharray:none;stroke-opacity:1;paint-order:markers stroke fill"
       id="path1390" />
    <path
       d="m 97.41167,141.14747 h -2.097698 l 0.867815,-4.35057 q 0.114942,-0.56897 -0.218391,-0.56897 -0.770113,0 -1.097699,1.63793 l -0.655172,3.28161 h -2.097698 l 0.850573,-4.25862 q 0.132184,-0.64942 -0.166666,-0.64942 -0.781608,0 -1.109194,1.63218 l -0.655172,3.27586 H 88.93467 l 1.160918,-5.81034 q 1.063217,0 2.126434,-0.14368 l -0.201149,1 q 0.942527,-0.99425 2.028733,-0.99425 0.908045,0 1.160918,0.93678 0.890803,-0.94827 1.942526,-0.94827 1.448274,0 1.155171,1.46551 z"
       style="font-style:normal;font-variant:normal;font-weight:normal;font-stretch:normal;font-size:11.7701px;line-height:1.25;font-family:'Britannic Bold';-inkscape-font-specification:'Britannic Bold, ';text-align:center;letter-spacing:0px;word-spacing:0px;text-anchor:middle;fill:#003380;fill-opacity:1;stroke:#ffffff;stroke-width:1;stroke-miterlimit:4;stroke-dasharray:none;stroke-opacity:1;paint-order:markers stroke fill"
       id="path1392" />
    <path
       d="m 98.181783,143.10724 1.545975,-7.74712 q 0.890802,0 2.132182,-0.14943 l -0.17816,0.87357 q 0.77011,-0.87931 1.61494,-0.87931 0.9023,0 1.27586,0.82758 0.37356,0.82184 0.0977,2.2069 -0.60919,3.06321 -2.64942,3.06321 -0.83908,0 -1.25287,-0.63218 l -0.48851,2.43678 z m 4.178157,-7.05747 q -0.6954,0 -1.12644,2.16092 -0.44827,2.24712 0.21839,2.24712 0.5977,0 1.04598,-2.24712 0.43103,-2.16092 -0.13793,-2.16092 z"
       style="font-style:normal;font-variant:normal;font-weight:normal;font-stretch:normal;font-size:11.7701px;line-height:1.25;font-family:'Britannic Bold';-inkscape-font-specification:'Britannic Bold, ';text-align:center;letter-spacing:0px;word-spacing:0px;text-anchor:middle;fill:#003380;fill-opacity:1;stroke:#ffffff;stroke-width:1;stroke-miterlimit:4;stroke-dasharray:none;stroke-opacity:1;paint-order:markers stroke fill"
       id="path1394" />
    <path
       d="m 110.2105,133.30265 0.61495,7.84482 h -2.28736 l -0.12644,-1.70115 h -2.36206 l -0.83908,1.70115 h -0.8908 l 3.8908,-7.84482 z m -3.77585,5.35632 h 1.92528 l -0.22988,-3.47701 z"
       style="font-style:normal;font-variant:normal;font-weight:normal;font-stretch:normal;font-size:11.7701px;line-height:1.25;font-family:'Britannic Bold';-inkscape-font-specification:'Britannic Bold, ';text-align:center;letter-spacing:0px;word-spacing:0px;text-anchor:middle;fill:#0066ff;fill-opacity:1;stroke:#ffffff;stroke-width:1;stroke-miterlimit:4;stroke-dasharray:none;stroke-opacity:1;paint-order:markers stroke fill"
       id="path1396" />
    <path
       d="m 114.03809,133.10725 q 0.97701,0 0.82183,0.75862 -0.14942,0.75862 -1.12643,0.75862 -0.97701,0 -0.82759,-0.75862 0.15518,-0.75862 1.13219,-0.75862 z m -2.67241,8.04022 1.15517,-5.78735 q 0.98275,0 2.13218,-0.15517 l -1.18966,5.94252 z"
       style="font-style:normal;font-variant:normal;font-weight:normal;font-stretch:normal;font-size:11.7701px;line-height:1.25;font-family:'Britannic Bold';-inkscape-font-specification:'Britannic Bold, ';text-align:center;letter-spacing:0px;word-spacing:0px;text-anchor:middle;fill:#0066ff;fill-opacity:1;stroke:#ffffff;stroke-width:1;stroke-miterlimit:4;stroke-dasharray:none;stroke-opacity:1;paint-order:markers stroke fill"
       id="path1398" />
    <path
       d="m 119.54957,137.45782 h -1.43678 q 0.14368,-0.33908 0.23563,-0.5 0.12644,-0.23563 0.16667,-0.42529 0.069,-0.36781 -0.1954,-0.36781 -0.20115,0 -0.48276,0.4885 -0.27586,0.48276 -0.38506,1.02299 l -0.6954,3.47126 h -2.0977 l 1.16092,-5.7931 0.4023,0.006 q 0.72414,0 1.72414,-0.15517 l -0.18966,0.95402 q 0.70115,-0.95402 1.44253,-0.95402 1.01149,0 0.78735,1.11494 -0.0575,0.2931 -0.22988,0.67241 -0.069,0.15517 -0.2069,0.46552 z"
       style="font-style:normal;font-variant:normal;font-weight:normal;font-stretch:normal;font-size:11.7701px;line-height:1.25;font-family:'Britannic Bold';-inkscape-font-specification:'Britannic Bold, ';text-align:center;letter-spacing:0px;word-spacing:0px;text-anchor:middle;fill:#0066ff;fill-opacity:1;stroke:#ffffff;stroke-width:1;stroke-miterlimit:4;stroke-dasharray:none;stroke-opacity:1;paint-order:markers stroke fill"
       id="path1400" />
    <path
       style="color:#000000;font-style:normal;font-variant:normal;font-weight:normal;font-stretch:normal;font-size:medium;line-height:normal;font-family:sans-serif;font-variant-ligatures:normal;font-variant-position:normal;font-variant-caps:normal;font-variant-numeric:normal;font-variant-alternates:normal;font-variant-east-asian:normal;font-feature-settings:normal;font-variation-settings:normal;text-indent:0;text-align:start;text-decoration:none;text-decoration-line:none;text-decoration-style:solid;text-decoration-color:#000000;letter-spacing:normal;word-spacing:normal;text-transform:none;writing-mode:lr-tb;direction:ltr;text-orientation:mixed;dominant-baseline:auto;baseline-shift:baseline;text-anchor:start;white-space:normal;shape-padding:0;shape-margin:0;inline-size:0;clip-rule:nonzero;display:inline;overflow:visible;visibility:visible;isolation:auto;mix-blend-mode:normal;color-interpolation:sRGB;color-interpolation-filters:linearRGB;solid-color:#000000;solid-opacity:1;vector-effect:none;fill:#003380;fill-opacity:1;fill-rule:nonzero;stroke:none;stroke-width:1.00013;stroke-linecap:butt;stroke-linejoin:miter;stroke-miterlimit:4;stroke-dasharray:none;stroke-dashoffset:0;stroke-opacity:1;color-rendering:auto;image-rendering:auto;shape-rendering:auto;text-rendering:auto;enable-background:accumulate;stop-color:#000000"
       d="m 90.081868,129.8627 -15.167968,2.16406 0.142578,0.99023 15.02539,-2.14453 15.025392,2.15234 0.14062,-0.99023 z"
       id="path987" />
    <g
       aria-label="• HVAC • REPAIR •"
       id="text1037"
       style="font-size:4.93889px;line-height:1.25;font-family:'Goudy Old Style';-inkscape-font-specification:'Goudy Old Style';text-align:center;letter-spacing:0px;word-spacing:0px;text-anchor:middle;display:inline;fill:#ffffff;stroke:#002255;stroke-width:0;stroke-linecap:round;stroke-miterlimit:4;stroke-dasharray:none;stroke-opacity:1;paint-order:stroke fill markers">
      <path
         d="m 81.526575,145.26295 q 0,0.29663 -0.212218,0.50402 -0.212218,0.20739 -0.504017,0.20739 -0.294211,0 -0.501606,-0.20739 -0.207395,-0.20739 -0.207395,-0.50402 0,-0.29421 0.204983,-0.50402 0.207395,-0.21221 0.504018,-0.21221 0.190514,0 0.356912,0.0965 0.166398,0.0965 0.262861,0.26286 0.09646,0.1664 0.09646,0.35691 z"
         style="font-style:normal;font-variant:normal;font-weight:normal;font-stretch:normal;font-size:4.93889px;font-family:'Arial Rounded MT Bold';-inkscape-font-specification:'Arial Rounded MT Bold, Normal';font-variant-ligatures:normal;font-variant-caps:normal;font-variant-numeric:normal;font-variant-east-asian:normal;fill:#ffffff;stroke:#002255;stroke-width:0;stroke-linecap:round;stroke-miterlimit:4;stroke-dasharray:none;stroke-opacity:1;paint-order:stroke fill markers"
         id="path892" />
      <path
         d="m 84.027371,143.84495 v 1.01286 h 1.545814 v -1.01286 q 0,-0.21704 0.09646,-0.32556 0.09887,-0.10852 0.258038,-0.10852 0.161575,0 0.260449,0.10852 0.101286,0.10611 0.101286,0.32556 v 2.78536 q 0,0.21945 -0.101286,0.32797 -0.101286,0.10852 -0.260449,0.10852 -0.161575,0 -0.258038,-0.10852 -0.09646,-0.11093 -0.09646,-0.32797 v -1.1889 h -1.545814 v 1.1889 q 0,0.21945 -0.101286,0.32797 -0.101286,0.10852 -0.260449,0.10852 -0.161575,0 -0.258038,-0.10852 -0.09646,-0.11093 -0.09646,-0.32797 v -2.78536 q 0,-0.21704 0.09405,-0.32556 0.09646,-0.10852 0.26045,-0.10852 0.161575,0 0.260449,0.10852 0.101286,0.10611 0.101286,0.32556 z"
         style="font-style:normal;font-variant:normal;font-weight:normal;font-stretch:normal;font-size:4.93889px;font-family:'Arial Rounded MT Bold';-inkscape-font-specification:'Arial Rounded MT Bold, Normal';font-variant-ligatures:normal;font-variant-caps:normal;font-variant-numeric:normal;font-variant-east-asian:normal;fill:#ffffff;stroke:#002255;stroke-width:0;stroke-linecap:round;stroke-miterlimit:4;stroke-dasharray:none;stroke-opacity:1;paint-order:stroke fill markers"
         id="path894" />
      <path
         d="m 87.582021,143.88112 0.80064,2.37057 0.803052,-2.38745 q 0.0627,-0.1881 0.09405,-0.26045 0.03135,-0.0747 0.103698,-0.13263 0.07235,-0.0603 0.197748,-0.0603 0.09164,0 0.16881,0.0458 0.07958,0.0458 0.12299,0.12299 0.04582,0.0748 0.04582,0.15193 0,0.0531 -0.01447,0.11575 -0.01447,0.0603 -0.03617,0.12058 -0.0217,0.0579 -0.04341,0.12058 l -0.856106,2.31028 q -0.04582,0.13264 -0.09164,0.25322 -0.04582,0.11816 -0.106109,0.2098 -0.06029,0.0892 -0.161575,0.14711 -0.09887,0.0579 -0.243568,0.0579 -0.144694,0 -0.24598,-0.0579 -0.09887,-0.0555 -0.161575,-0.14711 -0.06029,-0.094 -0.106109,-0.21222 -0.04582,-0.11816 -0.09164,-0.2508 l -0.841637,-2.29099 q -0.0217,-0.0627 -0.04582,-0.12299 -0.0217,-0.0603 -0.03858,-0.13022 -0.01447,-0.0699 -0.01447,-0.11817 0,-0.12299 0.09888,-0.22428 0.09887,-0.10128 0.248391,-0.10128 0.183279,0 0.258038,0.11334 0.07717,0.11093 0.156752,0.35691 z"
         style="font-style:normal;font-variant:normal;font-weight:normal;font-stretch:normal;font-size:4.93889px;font-family:'Arial Rounded MT Bold';-inkscape-font-specification:'Arial Rounded MT Bold, Normal';font-variant-ligatures:normal;font-variant-caps:normal;font-variant-numeric:normal;font-variant-east-asian:normal;fill:#ffffff;stroke:#002255;stroke-width:0;stroke-linecap:round;stroke-miterlimit:4;stroke-dasharray:none;stroke-opacity:1;paint-order:stroke fill markers"
         id="path896" />
      <path
         d="m 92.467856,146.6062 -0.16881,-0.44373 h -1.437294 l -0.16881,0.45337 q -0.09887,0.26527 -0.168809,0.35933 -0.06994,0.0916 -0.229099,0.0916 -0.135048,0 -0.238745,-0.0989 -0.103698,-0.0989 -0.103698,-0.22428 0,-0.0723 0.02412,-0.14951 0.02412,-0.0772 0.07958,-0.21463 l 0.904337,-2.29581 q 0.03859,-0.0989 0.09164,-0.23634 0.05547,-0.13987 0.115755,-0.23151 0.0627,-0.0916 0.161575,-0.1471 0.101286,-0.0579 0.248392,-0.0579 0.149517,0 0.248391,0.0579 0.101286,0.0555 0.161575,0.14469 0.0627,0.0892 0.103698,0.19293 0.04341,0.10128 0.10852,0.2725 l 0.92363,2.28135 q 0.108521,0.26044 0.108521,0.37861 0,0.12299 -0.103697,0.22669 -0.101286,0.10128 -0.24598,0.10128 -0.0844,0 -0.144694,-0.0314 -0.06029,-0.0289 -0.101286,-0.0796 -0.041,-0.0531 -0.08923,-0.15916 -0.04582,-0.10852 -0.07958,-0.19051 z m -1.418002,-0.98151 h 1.056267 l -0.532956,-1.459 z"
         style="font-style:normal;font-variant:normal;font-weight:normal;font-stretch:normal;font-size:4.93889px;font-family:'Arial Rounded MT Bold';-inkscape-font-specification:'Arial Rounded MT Bold, Normal';font-variant-ligatures:normal;font-variant-caps:normal;font-variant-numeric:normal;font-variant-east-asian:normal;fill:#ffffff;stroke:#002255;stroke-width:0;stroke-linecap:round;stroke-miterlimit:4;stroke-dasharray:none;stroke-opacity:1;paint-order:stroke fill markers"
         id="path898" />
      <path
         d="m 96.647103,145.88996 q 0,0.16881 -0.08441,0.36656 -0.08199,0.19534 -0.260449,0.38585 -0.178456,0.1881 -0.455786,0.30627 -0.27733,0.11816 -0.6463,0.11816 -0.279742,0 -0.508841,-0.0531 -0.229099,-0.053 -0.417201,-0.16399 -0.185691,-0.11334 -0.342443,-0.29662 -0.139871,-0.1664 -0.238745,-0.37138 -0.09887,-0.2074 -0.149517,-0.44132 -0.04823,-0.23392 -0.04823,-0.49678 0,-0.42685 0.12299,-0.76447 0.125401,-0.33762 0.356912,-0.57636 0.23151,-0.24116 0.542602,-0.36656 0.311092,-0.1254 0.663181,-0.1254 0.429259,0 0.764467,0.17122 0.335208,0.17122 0.513664,0.42444 0.178456,0.2508 0.178456,0.47507 0,0.12299 -0.08682,0.21705 -0.08682,0.0941 -0.209807,0.0941 -0.137459,0 -0.207395,-0.0651 -0.06752,-0.0651 -0.151928,-0.22427 -0.139871,-0.26286 -0.330385,-0.39309 -0.188102,-0.13022 -0.465433,-0.13022 -0.441316,0 -0.704177,0.33521 -0.26045,0.3352 -0.26045,0.95257 0,0.41237 0.115756,0.68729 0.115755,0.27251 0.327973,0.40756 0.212218,0.13504 0.496783,0.13504 0.30868,0 0.520898,-0.15192 0.21463,-0.15434 0.32315,-0.45097 0.04582,-0.13987 0.113344,-0.22668 0.06752,-0.0892 0.217041,-0.0892 0.127813,0 0.219453,0.0892 0.09164,0.0892 0.09164,0.22186 z"
         style="font-style:normal;font-variant:normal;font-weight:normal;font-stretch:normal;font-size:4.93889px;font-family:'Arial Rounded MT Bold';-inkscape-font-specification:'Arial Rounded MT Bold, Normal';font-variant-ligatures:normal;font-variant-caps:normal;font-variant-numeric:normal;font-variant-east-asian:normal;fill:#ffffff;stroke:#002255;stroke-width:0;stroke-linecap:round;stroke-miterlimit:4;stroke-dasharray:none;stroke-opacity:1;paint-order:stroke fill markers"
         id="path900" />
      <path
         d="m 99.729086,145.26295 q 0,0.29663 -0.212218,0.50402 -0.212218,0.20739 -0.504017,0.20739 -0.294212,0 -0.501606,-0.20739 -0.207395,-0.20739 -0.207395,-0.50402 0,-0.29421 0.204983,-0.50402 0.207395,-0.21221 0.504018,-0.21221 0.190513,0 0.356912,0.0965 0.166398,0.0965 0.26286,0.26286 0.09646,0.1664 0.09646,0.35691 z"
         style="font-style:normal;font-variant:normal;font-weight:normal;font-stretch:normal;font-size:4.93889px;font-family:'Arial Rounded MT Bold';-inkscape-font-specification:'Arial Rounded MT Bold, Normal';font-variant-ligatures:normal;font-variant-caps:normal;font-variant-numeric:normal;font-variant-east-asian:normal;fill:#ffffff;stroke:#002255;stroke-width:0;stroke-linecap:round;stroke-miterlimit:4;stroke-dasharray:none;stroke-opacity:1;paint-order:stroke fill markers"
         id="path902" />
      <path
         d="m 102.47104,145.49446 h -0.25081 v 1.13585 q 0,0.22428 -0.0989,0.33039 -0.0989,0.1061 -0.25804,0.1061 -0.17122,0 -0.26527,-0.11093 -0.094,-0.11093 -0.094,-0.32556 v -2.72025 q 0,-0.23151 0.1037,-0.3352 0.10369,-0.1037 0.3352,-0.1037 h 1.16479 q 0.24116,0 0.41238,0.0217 0.17122,0.0193 0.30868,0.082 0.1664,0.0699 0.29421,0.20016 0.12781,0.13022 0.19293,0.30385 0.0675,0.17122 0.0675,0.36415 0,0.3955 -0.22427,0.63183 -0.22187,0.23633 -0.67524,0.33521 0.19051,0.10128 0.36414,0.29903 0.17364,0.19775 0.30868,0.42203 0.13746,0.22186 0.21222,0.40273 0.0772,0.17845 0.0772,0.24598 0,0.0699 -0.0458,0.13987 -0.0434,0.0675 -0.12058,0.10611 -0.0772,0.041 -0.17845,0.041 -0.12058,0 -0.20257,-0.0579 -0.082,-0.0555 -0.14229,-0.14229 -0.0579,-0.0868 -0.15916,-0.25562 l -0.28698,-0.47749 q -0.15434,-0.26286 -0.27733,-0.40032 -0.12058,-0.13746 -0.24598,-0.1881 -0.1254,-0.0506 -0.31591,-0.0506 z m 0.40996,-1.48552 h -0.66077 v 0.97186 h 0.64148 q 0.25804,0 0.43408,-0.0434 0.17605,-0.0458 0.26769,-0.15193 0.094,-0.10852 0.094,-0.29662 0,-0.14711 -0.0748,-0.25804 -0.0748,-0.11334 -0.20739,-0.16881 -0.12541,-0.0531 -0.49438,-0.0531 z"
         style="font-style:normal;font-variant:normal;font-weight:normal;font-stretch:normal;font-size:4.93889px;font-family:'Arial Rounded MT Bold';-inkscape-font-specification:'Arial Rounded MT Bold, Normal';font-variant-ligatures:normal;font-variant-caps:normal;font-variant-numeric:normal;font-variant-east-asian:normal;fill:#ffffff;stroke:#002255;stroke-width:0;stroke-linecap:round;stroke-miterlimit:4;stroke-dasharray:none;stroke-opacity:1;paint-order:stroke fill markers"
         id="path904" />
      <path
         d="m 107.39064,144.02341 h -1.61334 v 0.86816 h 1.48552 q 0.16399,0 0.24357,0.0748 0.082,0.0724 0.082,0.19292 0,0.12058 -0.0796,0.19775 -0.0796,0.0748 -0.24598,0.0748 h -1.48552 v 1.00563 h 1.6688 q 0.16881,0 0.25322,0.0796 0.0868,0.0772 0.0868,0.20739 0,0.1254 -0.0868,0.20499 -0.0844,0.0772 -0.25322,0.0772 h -1.94613 q -0.23393,0 -0.33762,-0.1037 -0.10129,-0.1037 -0.10129,-0.33521 v -2.65755 q 0,-0.15434 0.0458,-0.2508 0.0458,-0.0989 0.14228,-0.14228 0.0989,-0.0458 0.25081,-0.0458 h 1.89067 q 0.17122,0 0.25321,0.0772 0.0844,0.0748 0.0844,0.19775 0,0.1254 -0.0844,0.20257 -0.082,0.0748 -0.25321,0.0748 z"
         style="font-style:normal;font-variant:normal;font-weight:normal;font-stretch:normal;font-size:4.93889px;font-family:'Arial Rounded MT Bold';-inkscape-font-specification:'Arial Rounded MT Bold, Normal';font-variant-ligatures:normal;font-variant-caps:normal;font-variant-numeric:normal;font-variant-east-asian:normal;fill:#ffffff;stroke:#002255;stroke-width:0;stroke-linecap:round;stroke-miterlimit:4;stroke-dasharray:none;stroke-opacity:1;paint-order:stroke fill markers"
         id="path906" />
      <path
         d="m 109.72744,145.62951 h -0.65594 v 1.0008 q 0,0.21463 -0.10129,0.32556 -0.10128,0.11093 -0.25562,0.11093 -0.16158,0 -0.26045,-0.10852 -0.0989,-0.11093 -0.0989,-0.32315 v -2.72507 q 0,-0.23633 0.10852,-0.33762 0.10852,-0.10128 0.34486,-0.10128 h 0.9188 q 0.40756,0 0.62701,0.0627 0.21704,0.0603 0.37379,0.20016 0.15917,0.13987 0.24116,0.34244 0.082,0.20257 0.082,0.45579 0,0.54019 -0.33279,0.81993 -0.3328,0.27733 -0.99116,0.27733 z m -0.17363,-1.62057 h -0.48231 v 1.08038 h 0.48231 q 0.25322,0 0.42203,-0.0531 0.17122,-0.053 0.26044,-0.17363 0.0892,-0.12058 0.0892,-0.31591 0,-0.23393 -0.13746,-0.38103 -0.15434,-0.15675 -0.63424,-0.15675 z"
         style="font-style:normal;font-variant:normal;font-weight:normal;font-stretch:normal;font-size:4.93889px;font-family:'Arial Rounded MT Bold';-inkscape-font-specification:'Arial Rounded MT Bold, Normal';font-variant-ligatures:normal;font-variant-caps:normal;font-variant-numeric:normal;font-variant-east-asian:normal;fill:#ffffff;stroke:#002255;stroke-width:0;stroke-linecap:round;stroke-miterlimit:4;stroke-dasharray:none;stroke-opacity:1;paint-order:stroke fill markers"
         id="path908" />
      <path
         d="m 113.47743,146.6062 -0.16881,-0.44373 h -1.43729 l -0.16881,0.45337 q -0.0989,0.26527 -0.16881,0.35933 -0.0699,0.0916 -0.2291,0.0916 -0.13505,0 -0.23875,-0.0989 -0.10369,-0.0989 -0.10369,-0.22428 0,-0.0723 0.0241,-0.14951 0.0241,-0.0772 0.0796,-0.21463 l 0.90434,-2.29581 q 0.0386,-0.0989 0.0916,-0.23634 0.0555,-0.13987 0.11576,-0.23151 0.0627,-0.0916 0.16157,-0.1471 0.10129,-0.0579 0.24839,-0.0579 0.14952,0 0.24839,0.0579 0.10129,0.0555 0.16158,0.14469 0.0627,0.0892 0.1037,0.19293 0.0434,0.10128 0.10852,0.2725 l 0.92363,2.28135 q 0.10852,0.26044 0.10852,0.37861 0,0.12299 -0.1037,0.22669 -0.10129,0.10128 -0.24598,0.10128 -0.0844,0 -0.14469,-0.0314 -0.0603,-0.0289 -0.10129,-0.0796 -0.041,-0.0531 -0.0892,-0.15916 -0.0458,-0.10852 -0.0796,-0.19051 z m -1.418,-0.98151 h 1.05627 l -0.53296,-1.459 z"
         style="font-style:normal;font-variant:normal;font-weight:normal;font-stretch:normal;font-size:4.93889px;font-family:'Arial Rounded MT Bold';-inkscape-font-specification:'Arial Rounded MT Bold, Normal';font-variant-ligatures:normal;font-variant-caps:normal;font-variant-numeric:normal;font-variant-east-asian:normal;fill:#ffffff;stroke:#002255;stroke-width:0;stroke-linecap:round;stroke-miterlimit:4;stroke-dasharray:none;stroke-opacity:1;paint-order:stroke fill markers"
         id="path910" />
      <path
         d="m 114.79656,146.63031 v -2.78536 q 0,-0.21704 0.0989,-0.32556 0.0989,-0.10852 0.25563,-0.10852 0.16157,0 0.26045,0.10852 0.10128,0.10611 0.10128,0.32556 v 2.78536 q 0,0.21945 -0.10128,0.32797 -0.0989,0.10852 -0.26045,0.10852 -0.15434,0 -0.25563,-0.10852 -0.0989,-0.11093 -0.0989,-0.32797 z"
         style="font-style:normal;font-variant:normal;font-weight:normal;font-stretch:normal;font-size:4.93889px;font-family:'Arial Rounded MT Bold';-inkscape-font-specification:'Arial Rounded MT Bold, Normal';font-variant-ligatures:normal;font-variant-caps:normal;font-variant-numeric:normal;font-variant-east-asian:normal;fill:#ffffff;stroke:#002255;stroke-width:0;stroke-linecap:round;stroke-miterlimit:4;stroke-dasharray:none;stroke-opacity:1;paint-order:stroke fill markers"
         id="path912" />
      <path
         d="m 117.27565,145.49446 h -0.2508 v 1.13585 q 0,0.22428 -0.0989,0.33039 -0.0989,0.1061 -0.25804,0.1061 -0.17122,0 -0.26527,-0.11093 -0.094,-0.11093 -0.094,-0.32556 v -2.72025 q 0,-0.23151 0.1037,-0.3352 0.1037,-0.1037 0.33521,-0.1037 h 1.16478 q 0.24116,0 0.41238,0.0217 0.17122,0.0193 0.30868,0.082 0.1664,0.0699 0.29421,0.20016 0.12782,0.13022 0.19293,0.30385 0.0675,0.17122 0.0675,0.36415 0,0.3955 -0.22427,0.63183 -0.22187,0.23633 -0.67524,0.33521 0.19051,0.10128 0.36414,0.29903 0.17364,0.19775 0.30868,0.42203 0.13746,0.22186 0.21222,0.40273 0.0772,0.17845 0.0772,0.24598 0,0.0699 -0.0458,0.13987 -0.0434,0.0675 -0.12058,0.10611 -0.0772,0.041 -0.17845,0.041 -0.12058,0 -0.20257,-0.0579 -0.082,-0.0555 -0.14229,-0.14229 -0.0579,-0.0868 -0.15916,-0.25562 l -0.28698,-0.47749 q -0.15434,-0.26286 -0.27733,-0.40032 -0.12057,-0.13746 -0.24598,-0.1881 -0.1254,-0.0506 -0.31591,-0.0506 z m 0.40997,-1.48552 h -0.66077 v 0.97186 h 0.64147 q 0.25804,0 0.43409,-0.0434 0.17604,-0.0458 0.26768,-0.15193 0.0941,-0.10852 0.0941,-0.29662 0,-0.14711 -0.0748,-0.25804 -0.0748,-0.11334 -0.20739,-0.16881 -0.1254,-0.0531 -0.49437,-0.0531 z"
         style="font-style:normal;font-variant:normal;font-weight:normal;font-stretch:normal;font-size:4.93889px;font-family:'Arial Rounded MT Bold';-inkscape-font-specification:'Arial Rounded MT Bold, Normal';font-variant-ligatures:normal;font-variant-caps:normal;font-variant-numeric:normal;font-variant-east-asian:normal;fill:#ffffff;stroke:#002255;stroke-width:0;stroke-linecap:round;stroke-miterlimit:4;stroke-dasharray:none;stroke-opacity:1;paint-order:stroke fill markers"
         id="path914" />
      <path
         d="m 122.30377,145.26295 q 0,0.29663 -0.21222,0.50402 -0.21222,0.20739 -0.50402,0.20739 -0.29421,0 -0.50161,-0.20739 -0.20739,-0.20739 -0.20739,-0.50402 0,-0.29421 0.20498,-0.50402 0.2074,-0.21221 0.50402,-0.21221 0.19051,0 0.35691,0.0965 0.1664,0.0965 0.26286,0.26286 0.0965,0.1664 0.0965,0.35691 z"
         style="font-style:normal;font-variant:normal;font-weight:normal;font-stretch:normal;font-size:4.93889px;font-family:'Arial Rounded MT Bold';-inkscape-font-specification:'Arial Rounded MT Bold, Normal';font-variant-ligatures:normal;font-variant-caps:normal;font-variant-numeric:normal;font-variant-east-asian:normal;fill:#ffffff;stroke:#002255;stroke-width:0;stroke-linecap:round;stroke-miterlimit:4;stroke-dasharray:none;stroke-opacity:1;paint-order:stroke fill markers"
         id="path916" />
    </g>
    <g
       id="g885"
       style="opacity:1" />
  </g>
</svg>
