<?xml version="1.0" encoding="UTF-8" standalone="no"?>
<svg
   xmlns:dc="http://purl.org/dc/elements/1.1/"
   xmlns:cc="http://creativecommons.org/ns#"
   xmlns:rdf="http://www.w3.org/1999/02/22-rdf-syntax-ns#"
   xmlns:svg="http://www.w3.org/2000/svg"
   xmlns="http://www.w3.org/2000/svg"
   xmlns:xlink="http://www.w3.org/1999/xlink"
   xmlns:sodipodi="http://sodipodi.sourceforge.net/DTD/sodipodi-0.dtd"
   xmlns:inkscape="http://www.inkscape.org/namespaces/inkscape"
   width="67.721642mm"
   height="23.357315mm"
   viewBox="0 0 67.721643 23.357315"
   version="1.1"
   id="svg1112"
   inkscape:version="1.0.1 (3bc2e813f5, 2020-09-07)"
   sodipodi:docname="logo.svg">
  <defs
     id="defs1106">
    <linearGradient
       inkscape:collect="always"
       xlink:href="#linearGradient1524"
       id="linearGradient1534"
       gradientUnits="userSpaceOnUse"
       x1="57.502937"
       y1="170.79172"
       x2="90.045692"
       y2="158.54555"
       gradientTransform="translate(53.851672,-29.644246)" />
    <linearGradient
       inkscape:collect="always"
       id="linearGradient1524">
      <stop
         style="stop-color:#aaccff;stop-opacity:1"
         offset="0"
         id="stop1520" />
      <stop
         style="stop-color:#d5e5ff;stop-opacity:0"
         offset="1"
         id="stop1522" />
    </linearGradient>
    <linearGradient
       inkscape:collect="always"
       xlink:href="#linearGradient1524"
       id="linearGradient1797"
       gradientUnits="userSpaceOnUse"
       x1="57.502937"
       y1="170.79172"
       x2="90.045692"
       y2="158.54555"
       gradientTransform="translate(53.851672,-29.644246)" />
    <linearGradient
       inkscape:collect="always"
       xlink:href="#linearGradient1524"
       id="linearGradient1799"
       gradientUnits="userSpaceOnUse"
       x1="57.502937"
       y1="170.79172"
       x2="90.045692"
       y2="158.54555"
       gradientTransform="translate(53.851672,-29.644246)" />
    <linearGradient
       inkscape:collect="always"
       xlink:href="#linearGradient1524"
       id="linearGradient1801"
       gradientUnits="userSpaceOnUse"
       x1="57.502937"
       y1="170.79172"
       x2="90.045692"
       y2="158.54555"
       gradientTransform="translate(53.851672,-29.644246)" />
    <linearGradient
       inkscape:collect="always"
       xlink:href="#linearGradient1524"
       id="linearGradient1803"
       gradientUnits="userSpaceOnUse"
       x1="57.502937"
       y1="170.79172"
       x2="90.045692"
       y2="158.54555"
       gradientTransform="translate(53.851672,-29.644246)" />
  </defs>
  <sodipodi:namedview
     id="base"
     pagecolor="#ffffff"
     bordercolor="#666666"
     borderopacity="1.0"
     inkscape:pageopacity="0.0"
     inkscape:pageshadow="2"
     inkscape:zoom="2"
     inkscape:cx="8.6490455"
     inkscape:cy="40.43856"
     inkscape:document-units="mm"
     inkscape:current-layer="layer1"
     inkscape:document-rotation="0"
     showgrid="false"
     fit-margin-top="0"
     fit-margin-left="0"
     fit-margin-right="0"
     fit-margin-bottom="0"
     inkscape:window-width="1920"
     inkscape:window-height="1017"
     inkscape:window-x="1072"
     inkscape:window-y="224"
     inkscape:window-maximized="1"
     showguides="true"
     inkscape:guide-bbox="true"
     inkscape:snap-bbox="true"
     inkscape:snap-intersection-paths="true"
     inkscape:object-paths="true"
     inkscape:snap-smooth-nodes="true"
     inkscape:bbox-paths="true"
     inkscape:bbox-nodes="true"
     inkscape:snap-bbox-edge-midpoints="true"
     inkscape:snap-bbox-midpoints="true" />
  <metadata
     id="metadata1109">
    <rdf:RDF>
      <cc:Work
         rdf:about="">
        <dc:format>image/svg+xml</dc:format>
        <dc:type
           rdf:resource="http://purl.org/dc/dcmitype/StillImage" />
        <dc:title />
      </cc:Work>
    </rdf:RDF>
  </metadata>
  <g
     inkscape:label="Layer 1"
     inkscape:groupmode="layer"
     id="layer1"
     transform="translate(-67.341731,-128.1719)">
    <path
       id="path1078"
       style="font-style:normal;font-variant:normal;font-weight:normal;font-stretch:normal;font-size:11.7701px;line-height:1.25;font-family:'Britannic Bold';-inkscape-font-specification:'Britannic Bold, ';text-align:center;letter-spacing:0px;word-spacing:0px;text-anchor:middle;fill:#003380;fill-opacity:1;stroke:none;stroke-width:3.77952761;stroke-miterlimit:4;stroke-dasharray:none;stroke-opacity:1;paint-order:markers stroke fill"
       d="M 49.789062 18.914062 C 45.676478 18.914062 42.04861 20.375628 38.90625 23.300781 C 35.763888 26.211446 33.722511 30.013248 32.78125 34.705078 C 32.145373 37.875181 32.070059 40.531528 32.541016 42.685547 C 35.477017 43.891778 38.009469 45.609374 40.244141 47.333984 C 41.254325 48.113607 42.220435 48.857254 43.167969 49.535156 C 46.593803 49.505967 49.505619 48.650568 51.896484 46.957031 C 54.329281 45.233819 55.834825 42.930542 56.414062 40.048828 C 56.515429 39.498554 56.617383 38.846758 56.71875 38.09375 L 53.242188 37.138672 C 53.169794 38.412977 53.069796 39.375703 52.939453 40.027344 C 52.533988 42.069171 51.620304 43.76965 50.201172 45.130859 C 48.796523 46.492069 47.24 47.173828 45.53125 47.173828 C 41.389704 47.173828 40.116082 43.184089 41.708984 35.205078 C 43.577023 25.92281 46.365146 21.28125 50.072266 21.28125 C 53.576651 21.28125 54.887245 23.468556 54.003906 27.841797 C 53.91703 28.319655 53.764097 28.992465 53.546875 29.861328 L 57.566406 28.167969 C 58.797285 21.999074 56.204115 18.914062 49.789062 18.914062 z "
       transform="matrix(0.26458333,0,0,0.26458333,67.341731,128.1719)" />
    <path
       style="color:#000000;font-style:normal;font-variant:normal;font-weight:normal;font-stretch:normal;font-size:medium;line-height:normal;font-family:sans-serif;font-variant-ligatures:normal;font-variant-position:normal;font-variant-caps:normal;font-variant-numeric:normal;font-variant-alternates:normal;font-variant-east-asian:normal;font-feature-settings:normal;font-variation-settings:normal;text-indent:0;text-align:start;text-decoration:none;text-decoration-line:none;text-decoration-style:solid;text-decoration-color:#000000;letter-spacing:normal;word-spacing:normal;text-transform:none;writing-mode:lr-tb;direction:ltr;text-orientation:mixed;dominant-baseline:auto;baseline-shift:baseline;text-anchor:start;white-space:normal;shape-padding:0;shape-margin:0;inline-size:0;clip-rule:nonzero;display:inline;overflow:visible;visibility:visible;isolation:auto;mix-blend-mode:normal;color-interpolation:sRGB;color-interpolation-filters:linearRGB;solid-color:#000000;solid-opacity:1;vector-effect:none;fill:url(#linearGradient1797);fill-opacity:1;fill-rule:nonzero;stroke:none;stroke-width:1.13;stroke-linecap:square;stroke-linejoin:miter;stroke-miterlimit:4;stroke-dasharray:9.04, 2.25999999999999979, 1.12999999999999989, 2.25999999999999979;stroke-dashoffset:9.04;stroke-opacity:1;color-rendering:auto;image-rendering:auto;shape-rendering:auto;text-rendering:auto;enable-background:accumulate;stop-color:#000000;stop-opacity:1;opacity:1"
       d="M 126.97852 128.20703 C 126.03321 128.35205 125.3013 128.89424 124.68359 129.36719 C 123.96575 129.91233 123.33703 130.45942 122.64258 130.68945 L 122.64062 130.68945 L 122.63867 130.68945 C 122.24371 130.82317 121.78555 130.81556 121.36133 130.68359 L 121.20898 130.63477 L 121.10547 130.59766 L 120.57617 130.40234 L 120.1875 131.46289 L 120.7168 131.6582 L 120.8418 131.70312 L 121.02344 131.76172 L 121.02539 131.76172 C 121.65242 131.95678 122.34622 131.9811 123 131.75977 C 123.98552 131.43251 124.7024 130.77382 125.36914 130.26758 L 125.36914 130.26562 C 125.96466 129.80967 126.55013 129.41594 127.15039 129.32422 L 127.15234 129.32422 L 127.1543 129.32422 C 127.68574 129.24046 128.28644 129.42758 128.86914 129.71875 L 129.375 129.9707 L 129.87891 128.95898 L 129.375 128.70703 C 128.69752 128.3685 127.87438 128.06682 126.98047 128.20703 L 126.97852 128.20703 z M 117.46484 128.97461 L 117.16016 130.0625 L 117.70508 130.21484 C 118.01098 130.30073 118.32009 130.44132 118.64062 130.60547 L 119.14453 130.86328 L 119.66016 129.85742 L 119.15625 129.59961 C 118.8072 129.42085 118.42993 129.24492 118.00977 129.12695 L 117.46484 128.97461 z M 115.9043 129.16992 L 115.4082 129.43945 C 114.22536 130.08127 113.42516 131.01546 112.46875 131.42773 C 112.46814 131.42799 112.46741 131.42748 112.4668 131.42773 C 112.46607 131.42805 112.46557 131.42937 112.46484 131.42969 C 112.24606 131.52096 112.0222 131.57893 111.80469 131.5957 L 111.24023 131.63867 L 111.32812 132.76562 L 111.89062 132.72266 C 112.2502 132.69493 112.59224 132.60038 112.90625 132.46875 L 112.9082 132.46875 L 112.91016 132.4668 C 114.18583 131.91882 115.01169 130.94124 115.94727 130.43359 L 116.44336 130.16406 L 115.9043 129.16992 z M 130.82422 129.51172 L 130.38867 130.55469 L 130.91016 130.77344 C 131.29448 130.93396 131.7178 131.06231 132.17578 131.0957 L 132.74023 131.13672 L 132.82227 130.00977 L 132.25781 129.96875 C 131.96337 129.94728 131.65491 129.85961 131.3457 129.73047 L 130.82422 129.51172 z "
       id="path930" />
    <path
       style="color:#000000;font-style:normal;font-variant:normal;font-weight:normal;font-stretch:normal;font-size:medium;line-height:normal;font-family:sans-serif;font-variant-ligatures:normal;font-variant-position:normal;font-variant-caps:normal;font-variant-numeric:normal;font-variant-alternates:normal;font-variant-east-asian:normal;font-feature-settings:normal;font-variation-settings:normal;text-indent:0;text-align:start;text-decoration:none;text-decoration-line:none;text-decoration-style:solid;text-decoration-color:#000000;letter-spacing:normal;word-spacing:normal;text-transform:none;writing-mode:lr-tb;direction:ltr;text-orientation:mixed;dominant-baseline:auto;baseline-shift:baseline;text-anchor:start;white-space:normal;shape-padding:0;shape-margin:0;inline-size:0;clip-rule:nonzero;display:inline;overflow:visible;visibility:visible;isolation:auto;mix-blend-mode:normal;color-interpolation:sRGB;color-interpolation-filters:linearRGB;solid-color:#000000;solid-opacity:1;vector-effect:none;fill:url(#linearGradient1799);fill-opacity:1;fill-rule:nonzero;stroke:none;stroke-width:1.13;stroke-linecap:square;stroke-linejoin:miter;stroke-miterlimit:4;stroke-dasharray:9.04, 2.25999999999999979, 1.12999999999999989, 2.25999999999999979;stroke-dashoffset:2.26;stroke-opacity:1;color-rendering:auto;image-rendering:auto;shape-rendering:auto;text-rendering:auto;enable-background:accumulate;stop-color:#000000;stop-opacity:1;opacity:1"
       d="M 127.26562 130.95508 L 126.70508 131.02734 L 126.85352 132.14844 L 127.41406 132.07422 C 127.57091 132.05354 127.73621 132.05514 127.9043 132.07617 C 128.54052 132.16007 129.17619 132.51278 129.86328 132.89062 C 130.51199 133.24763 131.23634 133.67686 132.11914 133.82031 C 132.74753 133.92619 133.38181 133.82224 133.94141 133.57031 L 134.45508 133.33984 L 133.99219 132.30859 L 133.47656 132.54102 C 133.10383 132.70881 132.6861 132.77216 132.30273 132.70703 L 132.30078 132.70703 L 132.29883 132.70508 C 131.68355 132.6051 131.07031 132.26477 130.4082 131.90039 C 129.7358 131.53062 128.97887 131.07746 128.05078 130.95508 L 128.04883 130.95508 C 127.79501 130.92308 127.53078 130.92012 127.26562 130.95508 z M 125.44727 131.71094 L 124.99609 132.05078 C 124.68374 132.28661 124.39346 132.52354 124.10547 132.73633 L 123.65039 133.07227 L 124.32227 133.98242 L 124.77734 133.64648 C 125.0953 133.41156 125.38888 133.17122 125.67773 132.95312 L 126.12695 132.61328 L 125.44727 131.71094 z M 116.50195 131.8418 L 116.35938 131.88281 L 115.81641 132.03711 L 116.12305 133.12305 L 116.66797 132.9707 L 116.79688 132.93359 C 117.1535 132.83836 117.55904 132.86063 117.94531 132.97852 L 117.94727 132.97852 C 118.71441 133.21134 119.44999 133.72509 120.32812 134.15234 C 120.93374 134.44989 121.64997 134.72324 122.44727 134.66797 L 123.01172 134.62891 L 122.93359 133.50195 L 122.36914 133.54102 C 121.88518 133.57457 121.35548 133.39777 120.82812 133.13867 L 120.82617 133.13672 C 120.05943 132.76384 119.27312 132.20125 118.27539 131.89844 C 117.72061 131.72913 117.10619 131.68148 116.50586 131.8418 L 116.50195 131.8418 z "
       id="path926" />
    <path
       style="color:#000000;font-style:normal;font-variant:normal;font-weight:normal;font-stretch:normal;font-size:medium;line-height:normal;font-family:sans-serif;font-variant-ligatures:normal;font-variant-position:normal;font-variant-caps:normal;font-variant-numeric:normal;font-variant-alternates:normal;font-variant-east-asian:normal;font-feature-settings:normal;font-variation-settings:normal;text-indent:0;text-align:start;text-decoration:none;text-decoration-line:none;text-decoration-style:solid;text-decoration-color:#000000;letter-spacing:normal;word-spacing:normal;text-transform:none;writing-mode:lr-tb;direction:ltr;text-orientation:mixed;dominant-baseline:auto;baseline-shift:baseline;text-anchor:start;white-space:normal;shape-padding:0;shape-margin:0;inline-size:0;clip-rule:nonzero;display:inline;overflow:visible;visibility:visible;isolation:auto;mix-blend-mode:normal;color-interpolation:sRGB;color-interpolation-filters:linearRGB;solid-color:#000000;solid-opacity:1;vector-effect:none;fill:url(#linearGradient1801);fill-opacity:1;fill-rule:nonzero;stroke:none;stroke-width:1.13;stroke-linecap:square;stroke-linejoin:miter;stroke-miterlimit:4;stroke-dasharray:9.04, 2.25999999999999979, 1.12999999999999989, 2.25999999999999979;stroke-dashoffset:9.04;stroke-opacity:1;color-rendering:auto;image-rendering:auto;shape-rendering:auto;text-rendering:auto;enable-background:accumulate;stop-color:#000000;stop-opacity:1;opacity:1"
       d="M 127.51953 133.70703 C 126.8299 133.78532 126.23915 134.09388 125.74023 134.42773 C 124.91598 134.97669 124.26351 135.61393 123.54492 136 C 123.19291 136.1892 122.81732 136.30312 122.46484 136.30078 L 122.46289 136.30078 L 122.46094 136.30078 C 122.3126 136.30068 122.15987 136.28287 122.00586 136.25 L 121.45312 136.13281 L 121.21875 137.23828 L 121.76953 137.35547 C 121.99196 137.40294 122.22414 137.43147 122.46094 137.43164 C 123.0542 137.43474 123.60507 137.25141 124.08008 136.99609 C 124.9873 136.50868 125.66259 135.83625 126.36719 135.36719 L 126.36914 135.36719 C 126.7897 135.08576 127.22568 134.87584 127.64844 134.82812 L 127.65039 134.82812 C 128.03742 134.78229 128.46754 134.87332 128.88477 135.04492 L 129.4082 135.25977 L 129.83789 134.21484 L 129.31445 134 C 128.77988 133.78014 128.16654 133.63158 127.52148 133.70703 L 127.51953 133.70703 z M 130.85547 134.79883 L 130.34961 135.80859 L 130.85352 136.0625 C 131.21009 136.24115 131.59792 136.40843 132.02344 136.51367 L 132.57227 136.65039 L 132.8418 135.55273 L 132.29492 135.41797 C 131.98829 135.34213 131.67736 135.21107 131.36133 135.05273 L 130.85547 134.79883 z "
       id="path934" />
    <path
       style="color:#000000;font-style:normal;font-variant:normal;font-weight:normal;font-stretch:normal;font-size:medium;line-height:normal;font-family:sans-serif;font-variant-ligatures:normal;font-variant-position:normal;font-variant-caps:normal;font-variant-numeric:normal;font-variant-alternates:normal;font-variant-east-asian:normal;font-feature-settings:normal;font-variation-settings:normal;text-indent:0;text-align:start;text-decoration:none;text-decoration-line:none;text-decoration-style:solid;text-decoration-color:#000000;letter-spacing:normal;word-spacing:normal;text-transform:none;writing-mode:lr-tb;direction:ltr;text-orientation:mixed;dominant-baseline:auto;baseline-shift:baseline;text-anchor:start;white-space:normal;shape-padding:0;shape-margin:0;inline-size:0;clip-rule:nonzero;display:inline;overflow:visible;visibility:visible;isolation:auto;mix-blend-mode:normal;color-interpolation:sRGB;color-interpolation-filters:linearRGB;solid-color:#000000;solid-opacity:1;vector-effect:none;fill:url(#linearGradient1803);fill-opacity:1;fill-rule:nonzero;stroke:none;stroke-width:1.13;stroke-linecap:square;stroke-linejoin:miter;stroke-miterlimit:4;stroke-dasharray:9.04, 2.25999999999999979, 1.12999999999999989, 2.25999999999999979;stroke-dashoffset:4.52;stroke-opacity:1;color-rendering:auto;image-rendering:auto;shape-rendering:auto;text-rendering:auto;enable-background:accumulate;stop-color:#000000;stop-opacity:1;opacity:1"
       d="M 128.0918 136.38867 L 127.88086 137.5 L 128.43555 137.60547 L 128.54688 137.62695 L 128.66992 137.65625 C 129.30464 137.82743 129.92946 138.21199 130.62305 138.58594 C 131.19712 138.89693 131.84503 139.23433 132.60938 139.34375 L 133.16797 139.42383 L 133.32812 138.30469 L 132.76953 138.22461 C 132.24791 138.14994 131.71707 137.89243 131.16211 137.5918 L 131.16016 137.5918 C 130.51176 137.24229 129.81686 136.79424 128.96484 136.56445 L 128.95703 136.5625 L 128.7832 136.52148 L 128.64648 136.49414 L 128.0918 136.38867 z M 126.57617 136.79102 L 126.09766 137.09375 C 125.74941 137.31354 125.43556 137.5557 125.13672 137.78906 L 124.69141 138.13672 L 125.38672 139.02734 L 125.83203 138.67969 C 126.12663 138.44964 126.41208 138.23128 126.70117 138.04883 L 127.17969 137.74805 L 126.57617 136.79102 z M 119.7207 137.81445 L 119.17188 138.80469 L 119.66602 139.07812 L 120.02539 139.27539 L 120.02539 139.27734 C 120.60043 139.5938 121.23616 139.95132 121.99219 140.11328 C 122.59041 140.2454 123.22053 140.20357 123.79688 139.97852 L 124.32422 139.77148 L 123.91211 138.71875 L 123.38672 138.92578 C 123.02765 139.06599 122.61782 139.09402 122.23633 139.00977 L 122.23438 139.00977 L 122.23242 139.00977 C 121.69133 138.8945 121.14859 138.60426 120.57227 138.28711 L 120.57031 138.28711 L 120.21484 138.08984 L 119.7207 137.81445 z "
       id="path938" />
    <path
       style="color:#000000;font-style:normal;font-variant:normal;font-weight:normal;font-stretch:normal;font-size:medium;line-height:normal;font-family:sans-serif;font-variant-ligatures:normal;font-variant-position:normal;font-variant-caps:normal;font-variant-numeric:normal;font-variant-alternates:normal;font-variant-east-asian:normal;font-feature-settings:normal;font-variation-settings:normal;text-indent:0;text-align:start;text-decoration:none;text-decoration-line:none;text-decoration-style:solid;text-decoration-color:#000000;letter-spacing:normal;word-spacing:normal;text-transform:none;writing-mode:lr-tb;direction:ltr;text-orientation:mixed;dominant-baseline:auto;baseline-shift:baseline;text-anchor:start;white-space:normal;shape-padding:0;shape-margin:0;inline-size:0;clip-rule:nonzero;display:inline;overflow:visible;visibility:visible;isolation:auto;mix-blend-mode:normal;color-interpolation:sRGB;color-interpolation-filters:linearRGB;solid-color:#000000;solid-opacity:1;vector-effect:none;fill:url(#linearGradient1534);fill-opacity:1;fill-rule:nonzero;stroke:none;stroke-width:1.13;stroke-linecap:square;stroke-linejoin:miter;stroke-miterlimit:4;stroke-dasharray:9.04, 2.25999999999999979, 1.12999999999999989, 2.25999999999999979;stroke-dashoffset:9.266;stroke-opacity:1;color-rendering:auto;image-rendering:auto;shape-rendering:auto;text-rendering:auto;enable-background:accumulate;stop-color:#000000;stop-opacity:1;opacity:1"
       d="M 118.59766 140.05273 L 118.22852 141.12109 L 118.76367 141.30469 C 118.9356 141.3639 119.11062 141.43913 119.29102 141.52539 L 119.52734 141.64453 L 119.70898 141.74023 L 120.20703 142.00391 L 120.73633 141.00586 L 120.23828 140.74219 L 120.04297 140.63867 L 119.7832 140.50781 L 119.7793 140.50586 C 119.57646 140.40887 119.36081 140.31552 119.13086 140.23633 L 118.59766 140.05273 z "
       id="path942" />
    <path
       id="path863"
       style="color:#000000;font-style:normal;font-variant:normal;font-weight:normal;font-stretch:normal;font-size:medium;line-height:normal;font-family:sans-serif;font-variant-ligatures:normal;font-variant-position:normal;font-variant-caps:normal;font-variant-numeric:normal;font-variant-alternates:normal;font-variant-east-asian:normal;font-feature-settings:normal;font-variation-settings:normal;text-indent:0;text-align:start;text-decoration:none;text-decoration-line:none;text-decoration-style:solid;text-decoration-color:#000000;letter-spacing:normal;word-spacing:normal;text-transform:none;writing-mode:lr-tb;direction:ltr;text-orientation:mixed;dominant-baseline:auto;baseline-shift:baseline;text-anchor:start;white-space:normal;shape-padding:0;shape-margin:0;inline-size:0;clip-rule:nonzero;display:inline;overflow:visible;visibility:visible;isolation:auto;mix-blend-mode:normal;color-interpolation:sRGB;color-interpolation-filters:linearRGB;solid-color:#000000;solid-opacity:1;vector-effect:none;fill:#002255;fill-opacity:1;fill-rule:nonzero;stroke:none;stroke-width:3.77953;stroke-linecap:butt;stroke-linejoin:miter;stroke-miterlimit:4;stroke-dasharray:none;stroke-dashoffset:0;stroke-opacity:1;paint-order:stroke fill markers;color-rendering:auto;image-rendering:auto;shape-rendering:auto;text-rendering:auto;enable-background:accumulate;stop-color:#000000"
       d="M 25.201172 42.621094 C 24.629288 42.613535 24.040982 42.632633 23.435547 42.685547 C 17.802509 42.685736 12.391412 44.901706 8.3535156 48.861328 L 23.082031 52.808594 C 26.264798 53.661444 27.683123 58.617195 26.261719 63.921875 L 25.478516 66.849609 C 24.057145 72.154365 20.350743 75.737578 17.167969 74.884766 L 2.828125 71.042969 C 5.6618258 80.115158 16.657181 86.289632 26.091797 86.300781 C 33.80263 86.536246 37.919456 75.382603 49.765625 74.474609 C 50.694327 74.474912 51.622412 74.474647 52.550781 74.474609 L 202.80078 74.376953 L 205.90625 74.376953 C 215.19603 75.425848 220.29018 87.383381 232.52148 86.326172 C 238.15449 86.325983 243.56562 84.111928 247.60352 80.152344 L 232.875 76.205078 C 229.69222 75.352266 228.27398 70.394448 229.69531 65.089844 L 230.47852 62.164062 C 231.89984 56.859382 235.60824 53.274216 238.79102 54.126953 L 253.12891 57.96875 C 250.29517 48.896523 239.29984 42.723889 229.86523 42.712891 L 229.86523 42.710938 C 222.34277 42.481142 218.2377 53.0837 207.04297 54.445312 C 205.62886 54.447316 204.21482 54.447682 202.80078 54.453125 L 126.79102 54.582031 L 126.03906 58.341797 L 116.56055 58.341797 L 114.25781 58.341797 L 115.00391 54.603516 L 52.550781 54.708984 C 52.251934 54.709702 51.953125 54.709841 51.654297 54.710938 C 41.795138 54.961142 36.829028 42.799047 25.201172 42.625 L 25.201172 42.621094 z M 91.601562 57.595703 C 91.978298 57.595703 92.291884 57.670516 92.541016 57.816406 C 92.796224 57.956249 92.998481 58.138551 93.150391 58.363281 C 93.308375 58.588037 93.439667 58.83043 93.542969 59.091797 C 93.652348 59.346991 93.789068 59.689673 93.953125 60.121094 L 97.443359 68.744141 C 97.716798 69.400367 97.853516 69.87803 97.853516 70.175781 C 97.853516 70.485677 97.724174 70.769959 97.462891 71.03125 C 97.207682 71.286444 96.897786 71.414062 96.533203 71.414062 C 96.320542 71.414062 96.13825 71.37404 95.986328 71.294922 C 95.834416 71.222103 95.706813 71.121889 95.603516 70.994141 C 95.500209 70.860345 95.387149 70.659816 95.265625 70.392578 C 95.150173 70.119142 95.049908 69.880417 94.964844 69.673828 L 94.326172 67.996094 L 88.894531 67.996094 L 88.255859 69.710938 C 88.006738 70.379334 87.795365 70.831358 87.619141 71.068359 C 87.442914 71.299163 87.152984 71.414062 86.751953 71.414062 C 86.411675 71.414062 86.110893 71.290212 85.849609 71.041016 C 85.588323 70.791819 85.458984 70.509277 85.458984 70.193359 C 85.458984 70.011186 85.488053 69.823451 85.548828 69.628906 C 85.609603 69.434387 85.709868 69.162687 85.849609 68.816406 L 89.267578 60.140625 C 89.364813 59.891428 89.481565 59.592399 89.615234 59.246094 C 89.755001 58.893665 89.900835 58.601998 90.052734 58.371094 C 90.210719 58.140291 90.412976 57.956249 90.662109 57.816406 C 90.917318 57.670516 91.230902 57.595703 91.601562 57.595703 z M 171.00781 57.595703 C 171.38456 57.595703 171.69814 57.668563 171.94727 57.814453 C 172.20248 57.954296 172.40473 58.136597 172.55664 58.361328 C 172.71462 58.586084 172.84591 58.828477 172.94922 59.089844 C 173.05857 59.345037 173.19529 59.689673 173.35938 60.121094 L 176.84961 68.742188 C 177.12305 69.398414 177.25977 69.876077 177.25977 70.173828 C 177.25977 70.483724 177.13043 70.769959 176.86914 71.03125 C 176.61392 71.286444 176.30403 71.414062 175.93945 71.414062 C 175.72679 71.414062 175.54449 71.37404 175.39258 71.294922 C 175.24064 71.222103 175.11305 71.121889 175.00977 70.994141 C 174.90646 70.860345 174.79332 70.659816 174.67188 70.392578 C 174.55674 70.119773 174.45613 69.880094 174.37109 69.673828 L 173.73242 67.996094 L 168.30078 67.996094 L 167.66211 69.708984 C 167.41291 70.377381 167.20154 70.831358 167.02539 71.068359 C 166.84926 71.299163 166.55934 71.414062 166.1582 71.414062 C 165.81792 71.414062 165.51715 71.288259 165.25586 71.039062 C 164.99459 70.789866 164.86523 70.507324 164.86523 70.191406 C 164.86523 70.009233 164.89435 69.821498 164.95508 69.626953 C 165.0158 69.432433 165.11602 69.162687 165.25586 68.816406 L 168.67383 60.138672 C 168.77109 59.889475 168.88794 59.592399 169.02148 59.246094 C 169.16133 58.893665 169.30715 58.601998 169.45898 58.371094 C 169.61697 58.140291 169.81924 57.954296 170.06836 57.814453 C 170.32358 57.668563 170.63717 57.595703 171.00781 57.595703 z M 180.69727 57.595703 C 181.10437 57.595703 181.43249 57.732423 181.68164 58.005859 C 181.93683 58.273223 182.06445 58.683383 182.06445 59.236328 L 182.06445 69.763672 C 182.06445 70.316617 181.93683 70.73047 181.68164 71.003906 C 181.43244 71.277342 181.10432 71.414062 180.69727 71.414062 C 180.30838 71.414062 179.98569 71.277342 179.73047 71.003906 C 179.48127 70.724398 179.35742 70.310544 179.35742 69.763672 L 179.35742 59.236328 C 179.35742 58.689456 179.48127 58.279296 179.73047 58.005859 C 179.97967 57.732423 180.30236 57.595703 180.69727 57.595703 z M 61.697266 57.597656 C 62.104384 57.597656 62.432509 57.734376 62.681641 58.007812 C 62.936849 58.275176 63.064453 58.685336 63.064453 59.238281 L 63.064453 63.066406 L 68.90625 63.066406 L 68.90625 59.238281 C 68.90625 58.691409 69.028436 58.281249 69.271484 58.007812 C 69.520606 57.734376 69.845041 57.597656 70.246094 57.597656 C 70.653212 57.597656 70.981337 57.734376 71.230469 58.007812 C 71.485678 58.275176 71.613281 58.685336 71.613281 59.238281 L 71.613281 69.765625 C 71.613281 70.31857 71.485678 70.73047 71.230469 71.003906 C 70.97526 71.277342 70.647134 71.414062 70.246094 71.414062 C 69.838976 71.414062 69.514541 71.277342 69.271484 71.003906 C 69.028436 70.724398 68.90625 70.312497 68.90625 69.765625 L 68.90625 65.271484 L 63.064453 65.271484 L 63.064453 69.765625 C 63.064453 70.31857 62.936849 70.73047 62.681641 71.003906 C 62.426432 71.277342 62.098306 71.414062 61.697266 71.414062 C 61.290148 71.414062 60.96376 71.277342 60.720703 71.003906 C 60.477654 70.724398 60.357422 70.312497 60.357422 69.765625 L 60.357422 59.238281 C 60.357422 58.691409 60.475914 58.281249 60.712891 58.007812 C 60.955939 57.734376 61.284062 57.597656 61.697266 57.597656 z M 74.931641 57.597656 C 75.393446 57.597656 75.717881 57.73981 75.90625 58.025391 C 76.100694 58.304899 76.297525 58.755208 76.498047 59.375 L 79.525391 68.333984 L 82.560547 59.310547 C 82.718531 58.836594 82.837023 58.508471 82.916016 58.326172 C 82.995008 58.137951 83.124346 57.970184 83.306641 57.824219 C 83.48894 57.672282 83.738724 57.597656 84.054688 57.597656 C 84.285591 57.597656 84.498915 57.65413 84.693359 57.769531 C 84.893876 57.884933 85.048824 58.039881 85.158203 58.234375 C 85.273655 58.422847 85.330078 58.61425 85.330078 58.808594 C 85.330078 58.942389 85.31185 59.088235 85.275391 59.246094 C 85.238931 59.398031 85.193349 59.551238 85.138672 59.703125 C 85.083995 59.849015 85.029312 60.000269 84.974609 60.158203 L 81.740234 68.890625 C 81.624782 69.224836 81.50803 69.543833 81.392578 69.847656 C 81.277126 70.145382 81.144097 70.409721 80.992188 70.640625 C 80.840276 70.865381 80.636066 71.049398 80.380859 71.195312 C 80.131738 71.341202 79.825531 71.414062 79.460938 71.414062 C 79.096354 71.414062 78.786459 71.341202 78.53125 71.195312 C 78.282129 71.05547 78.077919 70.871453 77.919922 70.640625 C 77.76801 70.403775 77.634981 70.135768 77.519531 69.837891 C 77.404079 69.540165 77.28928 69.224836 77.173828 68.890625 L 73.992188 60.230469 C 73.93751 60.072484 73.879134 59.917537 73.818359 59.765625 C 73.763682 59.613688 73.71636 59.449614 73.673828 59.273438 C 73.637368 59.097312 73.619141 58.94975 73.619141 58.828125 C 73.619141 58.518229 73.743041 58.235688 73.992188 57.980469 C 74.241309 57.725275 74.554895 57.597656 74.931641 57.597656 z M 105.21875 57.597656 C 106.30035 57.597656 107.2628 57.81272 108.10742 58.244141 C 108.95204 58.675561 109.59918 59.209622 110.04883 59.847656 C 110.49848 60.479593 110.72461 61.079441 110.72461 61.644531 C 110.72461 61.954427 110.61524 62.227842 110.39648 62.464844 C 110.17773 62.701946 109.9134 62.820312 109.60352 62.820312 C 109.25716 62.820312 108.99458 62.73825 108.81836 62.574219 C 108.64823 62.410187 108.45682 62.127621 108.24414 61.726562 C 107.89171 61.064238 107.47613 60.568373 106.99609 60.240234 C 106.52214 59.912121 105.93511 59.748047 105.23633 59.748047 C 104.12435 59.748047 103.2385 60.171001 102.57617 61.015625 C 101.91992 61.860223 101.5918 63.059656 101.5918 64.615234 C 101.5918 65.654277 101.73763 66.520179 102.0293 67.212891 C 102.32096 67.89953 102.73286 68.413623 103.26758 68.753906 C 103.8023 69.094165 104.42947 69.263672 105.14648 69.263672 C 105.92426 69.263672 106.58051 69.072244 107.11523 68.689453 C 107.65603 68.300565 108.0625 67.731789 108.33594 66.984375 C 108.45139 66.631947 108.59353 66.34764 108.76367 66.128906 C 108.9338 65.90415 109.20724 65.791016 109.58398 65.791016 C 109.90603 65.791016 110.18316 65.90415 110.41406 66.128906 C 110.64497 66.353662 110.75977 66.632535 110.75977 66.966797 C 110.75977 67.392145 110.65409 67.853295 110.44141 68.351562 C 110.23482 68.843758 109.90669 69.330522 109.45703 69.810547 C 109.00738 70.2845 108.43316 70.670999 107.73438 70.96875 C 107.03559 71.266476 106.2207 71.414062 105.29102 71.414062 C 104.58615 71.414062 103.9464 71.348639 103.36914 71.214844 C 102.79188 71.0813 102.26497 70.87341 101.79102 70.59375 C 101.32313 70.308169 100.89301 69.934464 100.49805 69.472656 C 100.14562 69.053381 99.844834 68.586798 99.595703 68.070312 C 99.346582 67.54773 99.156911 66.991748 99.029297 66.402344 C 98.907772 65.812939 98.847656 65.185762 98.847656 64.523438 C 98.847656 63.44791 99.002604 62.485462 99.3125 61.634766 C 99.628471 60.78407 100.07877 60.058581 100.66211 59.457031 C 101.24544 58.849384 101.92904 58.386281 102.71289 58.070312 C 103.49674 57.754344 104.3316 57.597656 105.21875 57.597656 z M 130.77539 57.824219 L 135.17773 57.824219 C 135.78538 57.824219 136.30491 57.851573 136.73633 57.90625 C 137.16775 57.95488 137.55794 58.058813 137.9043 58.216797 C 138.32357 58.392923 138.69358 58.644442 139.01562 58.972656 C 139.33767 59.30077 139.58006 59.683601 139.74414 60.121094 C 139.91422 60.552514 140 61.011924 140 61.498047 C 140 62.494582 139.71743 63.291242 139.15234 63.886719 C 138.5933 64.482196 137.74196 64.903197 136.59961 65.152344 C 137.07963 65.407537 137.53907 65.784935 137.97656 66.283203 C 138.41408 66.781471 138.80232 67.313791 139.14258 67.878906 C 139.48893 68.437924 139.75694 68.944655 139.94531 69.400391 C 140.13983 69.850028 140.23633 70.159924 140.23633 70.330078 C 140.23633 70.506204 140.17985 70.683073 140.06445 70.859375 C 139.9551 71.029454 139.80189 71.162481 139.60742 71.259766 C 139.4129 71.363073 139.18871 71.414062 138.93359 71.414062 C 138.62977 71.414062 138.37456 71.341202 138.16797 71.195312 C 137.96135 71.05547 137.78277 70.876887 137.63086 70.658203 C 137.48497 70.439494 137.28444 70.116779 137.0293 69.691406 L 135.94336 67.886719 C 135.55447 67.224394 135.20638 66.721356 134.89648 66.375 C 134.59266 66.028644 134.28277 65.791659 133.9668 65.664062 C 133.65083 65.536566 133.25151 65.472656 132.77148 65.472656 L 131.82422 65.472656 L 131.82422 69.765625 C 131.82422 70.33074 131.70037 70.746308 131.45117 71.013672 C 131.20198 71.28101 130.87559 71.414062 130.47461 71.414062 C 130.04319 71.414062 129.70963 71.275602 129.47266 70.996094 C 129.23581 70.716585 129.11719 70.306425 129.11719 69.765625 L 129.11719 59.484375 C 129.11719 58.901043 129.24847 58.478063 129.50977 58.216797 C 129.77103 57.955506 130.19206 57.824219 130.77539 57.824219 z M 156.72461 57.824219 L 160.19727 57.824219 C 161.22419 57.824219 162.01541 57.904516 162.56836 58.0625 C 163.11523 58.214437 163.58551 58.465956 163.98047 58.818359 C 164.38153 59.170788 164.68599 59.602869 164.89258 60.113281 C 165.09919 60.623694 165.20117 61.197903 165.20117 61.835938 C 165.20117 63.197046 164.78189 64.228737 163.94336 64.933594 C 163.10481 65.632378 161.85613 65.982422 160.19727 65.982422 L 157.71875 65.982422 L 157.71875 69.765625 C 157.71875 70.306425 157.59116 70.716585 157.33594 70.996094 C 157.08074 71.275602 156.75803 71.414062 156.36914 71.414062 C 155.96201 71.414062 155.63389 71.277342 155.38477 71.003906 C 155.13557 70.724398 155.01172 70.317931 155.01172 69.783203 L 155.01172 59.484375 C 155.01172 58.888898 155.14844 58.46225 155.42188 58.207031 C 155.69531 57.951838 156.12911 57.824219 156.72461 57.824219 z M 186.73047 57.824219 L 191.13281 57.824219 C 191.74046 57.824219 192.25999 57.851573 192.69141 57.90625 C 193.12283 57.95488 193.51107 58.058813 193.85742 58.216797 C 194.2767 58.392923 194.64866 58.644442 194.9707 58.972656 C 195.29277 59.30077 195.53516 59.683601 195.69922 60.121094 C 195.8693 60.552514 195.95508 61.011924 195.95508 61.498047 C 195.95508 62.494582 195.67251 63.289288 195.10742 63.884766 C 194.54838 64.480243 193.69704 64.903197 192.55469 65.152344 C 193.03471 65.407537 193.49415 65.784935 193.93164 66.283203 C 194.36916 66.781471 194.7574 67.311838 195.09766 67.876953 C 195.44401 68.43597 195.71202 68.944655 195.90039 69.400391 C 196.09491 69.850028 196.19141 70.159924 196.19141 70.330078 C 196.19141 70.506204 196.13298 70.68112 196.01758 70.857422 C 195.90822 71.027501 195.75697 71.162481 195.5625 71.259766 C 195.36798 71.363073 195.14379 71.414062 194.88867 71.414062 C 194.58485 71.414062 194.32964 71.341202 194.12305 71.195312 C 193.91643 71.05547 193.7359 70.874933 193.58398 70.65625 C 193.43809 70.437541 193.23757 70.116779 192.98242 69.691406 L 191.89844 67.886719 C 191.50955 67.224394 191.15951 66.719403 190.84961 66.373047 C 190.54581 66.026691 190.23592 65.789706 189.91992 65.662109 C 189.60395 65.534613 189.20659 65.470703 188.72656 65.470703 L 187.7793 65.470703 L 187.7793 69.763672 C 187.7793 70.328787 187.65349 70.746308 187.4043 71.013672 C 187.1551 71.28101 186.83067 71.414062 186.42969 71.414062 C 185.99827 71.414062 185.66471 71.273649 185.42773 70.994141 C 185.19088 70.714632 185.07227 70.304472 185.07227 69.763672 L 185.07227 59.482422 C 185.07227 58.89909 185.2016 58.478063 185.46289 58.216797 C 185.72418 57.955506 186.14714 57.824219 186.73047 57.824219 z M 144.2207 57.826172 L 151.36523 57.826172 C 151.79665 57.826172 152.11568 57.922668 152.32227 58.117188 C 152.53493 58.30566 152.64258 58.555439 152.64258 58.865234 C 152.64258 59.181203 152.53493 59.436415 152.32227 59.630859 C 152.11565 59.819332 151.79663 59.912109 151.36523 59.912109 L 145.26758 59.912109 L 145.26758 63.193359 L 150.88281 63.193359 C 151.29602 63.193359 151.60222 63.28809 151.80273 63.476562 C 152.00935 63.658988 152.11328 63.901406 152.11328 64.205078 C 152.11328 64.508902 152.01307 64.758681 151.8125 64.953125 C 151.61193 65.141597 151.30204 65.234375 150.88281 65.234375 L 145.26758 65.234375 L 145.26758 69.035156 L 151.57617 69.035156 C 152.00152 69.035156 152.32052 69.135371 152.5332 69.335938 C 152.75191 69.530457 152.86133 69.793056 152.86133 70.121094 C 152.86133 70.437062 152.75191 70.695943 152.5332 70.896484 C 152.32054 71.091004 152.00155 71.1875 151.57617 71.1875 L 144.2207 71.1875 C 143.63127 71.1875 143.20463 71.056213 142.94336 70.794922 C 142.68814 70.533631 142.56055 70.112629 142.56055 69.529297 L 142.56055 59.484375 C 142.56055 59.095487 142.61897 58.780158 142.73438 58.537109 C 142.84978 58.287913 143.02839 58.107351 143.27148 57.998047 C 143.52068 57.882645 143.83794 57.826172 144.2207 57.826172 z M 190.27539 59.855469 L 190.27539 59.857422 L 187.7793 59.857422 L 187.7793 63.529297 L 190.20312 63.529297 C 190.8533 63.529297 191.40016 63.474589 191.84375 63.365234 C 192.28732 63.249833 192.62456 63.05843 192.85547 62.791016 C 193.09257 62.517579 193.21094 62.143875 193.21094 61.669922 C 193.21094 61.299251 193.11621 60.974821 192.92773 60.695312 C 192.73926 60.409731 192.47862 60.196408 192.14453 60.056641 C 191.82856 59.922845 191.20508 59.855469 190.27539 59.855469 z M 131.82422 59.857422 L 131.82422 63.53125 L 134.24805 63.53125 C 134.89823 63.53125 135.44511 63.476542 135.88867 63.367188 C 136.33226 63.251786 136.66949 63.060383 136.90039 62.792969 C 137.13724 62.519533 137.25586 62.145828 137.25586 61.671875 C 137.25586 61.301204 137.16308 60.974821 136.97461 60.695312 C 136.78614 60.409731 136.52354 60.198361 136.18945 60.058594 C 135.87346 59.924798 135.25195 59.857422 134.32227 59.857422 L 131.82422 59.857422 z M 157.71875 59.857422 L 157.71875 63.941406 L 159.54102 63.941406 C 160.17905 63.941406 160.71137 63.87403 161.13672 63.740234 C 161.56814 63.606691 161.89629 63.387934 162.12109 63.083984 C 162.34585 62.780161 162.45898 62.382795 162.45898 61.890625 C 162.45898 61.301195 162.28581 60.819864 161.93945 60.449219 C 161.55056 60.054258 160.75021 59.857422 159.54102 59.857422 L 157.71875 59.857422 z M 91.583984 60.449219 L 89.605469 65.964844 L 93.597656 65.964844 L 91.583984 60.449219 z M 170.99023 60.449219 L 169.01172 65.962891 L 173.00391 65.962891 L 170.99023 60.449219 z M 205.02344 61.888672 C 205.50346 61.888672 205.95377 62.010757 206.37305 62.253906 C 206.79232 62.497056 207.12219 62.828872 207.36523 63.248047 C 207.60838 63.667322 207.73047 64.115678 207.73047 64.595703 C 207.73047 65.343117 207.46246 65.979396 206.92773 66.501953 C 206.39301 67.024511 205.75868 67.285156 205.02344 67.285156 C 204.28212 67.285156 203.64954 67.024511 203.12695 66.501953 C 202.6044 65.979396 202.34375 65.343117 202.34375 64.595703 C 202.34375 63.854387 202.60266 63.220061 203.11914 62.691406 C 203.64172 62.156704 204.27605 61.888672 205.02344 61.888672 z M 50.904297 61.890625 C 51.384332 61.890625 51.834636 62.010757 52.253906 62.253906 C 52.673177 62.497056 53.00499 62.828872 53.248047 63.248047 C 53.491096 63.667322 53.611328 64.117631 53.611328 64.597656 C 53.611328 65.34507 53.345269 65.979396 52.810547 66.501953 C 52.275824 67.024511 51.639538 67.285156 50.904297 67.285156 C 50.162978 67.285156 49.532336 67.024511 49.009766 66.501953 C 48.487196 65.979396 48.224609 65.34507 48.224609 64.597656 C 48.224609 63.85634 48.483507 63.220061 49 62.691406 C 49.52257 62.156704 50.1569 61.890625 50.904297 61.890625 z M 119.70117 61.890625 C 120.1812 61.890625 120.63151 62.010757 121.05078 62.253906 C 121.47005 62.497056 121.80187 62.828872 122.04492 63.248047 C 122.28797 63.667322 122.4082 64.117631 122.4082 64.597656 C 122.4082 65.34507 122.14214 65.979396 121.60742 66.501953 C 121.0727 67.024511 120.43641 67.285156 119.70117 67.285156 C 118.95985 67.285156 118.32921 67.024511 117.80664 66.501953 C 117.28407 65.979396 117.02148 65.34507 117.02148 64.597656 C 117.02148 63.85634 117.28038 63.220061 117.79688 62.691406 C 118.31945 62.156704 118.95378 61.890625 119.70117 61.890625 z "
       transform="matrix(0.26458333,0,0,0.26458333,67.341731,128.1719)" />
    <path
       d="m 86.354213,135.20495 q 2.87356,0 2.264365,3.03448 -0.603448,3.03447 -3.477007,3.03447 -2.879307,0 -2.275859,-3.03447 0.609194,-3.03448 3.488501,-3.03448 z m -0.109195,0.51149 q -0.695402,0 -1.201148,2.52299 -0.505747,2.52298 0.189655,2.52298 0.701148,0 1.206895,-2.52298 0.505746,-2.52299 -0.195402,-2.52299 z"
       style="font-style:normal;font-variant:normal;font-weight:normal;font-stretch:normal;font-size:11.7701px;line-height:1.25;font-family:'Britannic Bold';-inkscape-font-specification:'Britannic Bold, ';text-align:center;letter-spacing:0px;word-spacing:0px;text-anchor:middle;fill:#003380;fill-opacity:1;stroke:none;stroke-width:1;stroke-miterlimit:4;stroke-dasharray:none;stroke-opacity:1;paint-order:markers stroke fill"
       id="path1390" />
    <path
       d="m 97.41167,141.14747 h -2.097698 l 0.867815,-4.35057 q 0.114942,-0.56897 -0.218391,-0.56897 -0.770113,0 -1.097699,1.63793 l -0.655172,3.28161 h -2.097698 l 0.850573,-4.25862 q 0.132184,-0.64942 -0.166666,-0.64942 -0.781608,0 -1.109194,1.63218 l -0.655172,3.27586 H 88.93467 l 1.160918,-5.81034 q 1.063217,0 2.126434,-0.14368 l -0.201149,1 q 0.942527,-0.99425 2.028733,-0.99425 0.908045,0 1.160918,0.93678 0.890803,-0.94827 1.942526,-0.94827 1.448274,0 1.155171,1.46551 z"
       style="font-style:normal;font-variant:normal;font-weight:normal;font-stretch:normal;font-size:11.7701px;line-height:1.25;font-family:'Britannic Bold';-inkscape-font-specification:'Britannic Bold, ';text-align:center;letter-spacing:0px;word-spacing:0px;text-anchor:middle;fill:#003380;fill-opacity:1;stroke:none;stroke-width:1;stroke-miterlimit:4;stroke-dasharray:none;stroke-opacity:1;paint-order:markers stroke fill"
       id="path1392" />
    <path
       d="m 98.181783,143.10724 1.545975,-7.74712 q 0.890802,0 2.132182,-0.14943 l -0.17816,0.87357 q 0.77011,-0.87931 1.61494,-0.87931 0.9023,0 1.27586,0.82758 0.37356,0.82184 0.0977,2.2069 -0.60919,3.06321 -2.64942,3.06321 -0.83908,0 -1.25287,-0.63218 l -0.48851,2.43678 z m 4.178157,-7.05747 q -0.6954,0 -1.12644,2.16092 -0.44827,2.24712 0.21839,2.24712 0.5977,0 1.04598,-2.24712 0.43103,-2.16092 -0.13793,-2.16092 z"
       style="font-style:normal;font-variant:normal;font-weight:normal;font-stretch:normal;font-size:11.7701px;line-height:1.25;font-family:'Britannic Bold';-inkscape-font-specification:'Britannic Bold, ';text-align:center;letter-spacing:0px;word-spacing:0px;text-anchor:middle;fill:#003380;fill-opacity:1;stroke:none;stroke-width:1;stroke-miterlimit:4;stroke-dasharray:none;stroke-opacity:1;paint-order:markers stroke fill"
       id="path1394" />
    <path
       d="m 110.2105,133.30265 0.61495,7.84482 h -2.28736 l -0.12644,-1.70115 h -2.36206 l -0.83908,1.70115 h -0.8908 l 3.8908,-7.84482 z m -3.77585,5.35632 h 1.92528 l -0.22988,-3.47701 z"
       style="font-style:normal;font-variant:normal;font-weight:normal;font-stretch:normal;font-size:11.7701px;line-height:1.25;font-family:'Britannic Bold';-inkscape-font-specification:'Britannic Bold, ';text-align:center;letter-spacing:0px;word-spacing:0px;text-anchor:middle;fill:#0066ff;fill-opacity:1;stroke:none;stroke-width:1;stroke-miterlimit:4;stroke-dasharray:none;stroke-opacity:1;paint-order:markers stroke fill"
       id="path1396" />
    <path
       d="m 114.03809,133.10725 q 0.97701,0 0.82183,0.75862 -0.14942,0.75862 -1.12643,0.75862 -0.97701,0 -0.82759,-0.75862 0.15518,-0.75862 1.13219,-0.75862 z m -2.67241,8.04022 1.15517,-5.78735 q 0.98275,0 2.13218,-0.15517 l -1.18966,5.94252 z"
       style="font-style:normal;font-variant:normal;font-weight:normal;font-stretch:normal;font-size:11.7701px;line-height:1.25;font-family:'Britannic Bold';-inkscape-font-specification:'Britannic Bold, ';text-align:center;letter-spacing:0px;word-spacing:0px;text-anchor:middle;fill:#0066ff;fill-opacity:1;stroke:none;stroke-width:1;stroke-miterlimit:4;stroke-dasharray:none;stroke-opacity:1;paint-order:markers stroke fill"
       id="path1398" />
    <path
       d="m 119.54957,137.45782 h -1.43678 q 0.14368,-0.33908 0.23563,-0.5 0.12644,-0.23563 0.16667,-0.42529 0.069,-0.36781 -0.1954,-0.36781 -0.20115,0 -0.48276,0.4885 -0.27586,0.48276 -0.38506,1.02299 l -0.6954,3.47126 h -2.0977 l 1.16092,-5.7931 0.4023,0.006 q 0.72414,0 1.72414,-0.15517 l -0.18966,0.95402 q 0.70115,-0.95402 1.44253,-0.95402 1.01149,0 0.78735,1.11494 -0.0575,0.2931 -0.22988,0.67241 -0.069,0.15517 -0.2069,0.46552 z"
       style="font-style:normal;font-variant:normal;font-weight:normal;font-stretch:normal;font-size:11.7701px;line-height:1.25;font-family:'Britannic Bold';-inkscape-font-specification:'Britannic Bold, ';text-align:center;letter-spacing:0px;word-spacing:0px;text-anchor:middle;fill:#0066ff;fill-opacity:1;stroke:none;stroke-width:1;stroke-miterlimit:4;stroke-dasharray:none;stroke-opacity:1;paint-order:markers stroke fill"
       id="path1400" />
    <path
       style="color:#000000;font-style:normal;font-variant:normal;font-weight:normal;font-stretch:normal;font-size:medium;line-height:normal;font-family:sans-serif;font-variant-ligatures:normal;font-variant-position:normal;font-variant-caps:normal;font-variant-numeric:normal;font-variant-alternates:normal;font-variant-east-asian:normal;font-feature-settings:normal;font-variation-settings:normal;text-indent:0;text-align:start;text-decoration:none;text-decoration-line:none;text-decoration-style:solid;text-decoration-color:#000000;letter-spacing:normal;word-spacing:normal;text-transform:none;writing-mode:lr-tb;direction:ltr;text-orientation:mixed;dominant-baseline:auto;baseline-shift:baseline;text-anchor:start;white-space:normal;shape-padding:0;shape-margin:0;inline-size:0;clip-rule:nonzero;display:inline;overflow:visible;visibility:visible;isolation:auto;mix-blend-mode:normal;color-interpolation:sRGB;color-interpolation-filters:linearRGB;solid-color:#000000;solid-opacity:1;vector-effect:none;fill:#003380;fill-opacity:1;fill-rule:nonzero;stroke:none;stroke-width:1;stroke-linecap:butt;stroke-linejoin:miter;stroke-miterlimit:4;stroke-dasharray:none;stroke-dashoffset:0;stroke-opacity:1;color-rendering:auto;image-rendering:auto;shape-rendering:auto;text-rendering:auto;enable-background:accumulate;stop-color:#000000"
       d="m 90.081868,129.8627 -15.167968,2.16406 0.142578,0.99023 15.02539,-2.14453 15.025392,2.15234 0.14062,-0.99023 z"
       id="path987" />
    <g
       aria-label="• HVAC • REPAIR •"
       id="text1037"
       style="font-size:4.93889px;line-height:1.25;font-family:'Goudy Old Style';-inkscape-font-specification:'Goudy Old Style';text-align:center;letter-spacing:0px;word-spacing:0px;text-anchor:middle;display:inline;fill:#ffffff;stroke:#002255;stroke-width:0;stroke-linecap:round;stroke-miterlimit:4;stroke-dasharray:none;stroke-opacity:1;paint-order:stroke fill markers" />
    <g
       id="g885"
       style="opacity:1" />
  </g>
</svg>
