<?xml version="1.0" encoding="UTF-8" standalone="no"?>
<svg
   xmlns:dc="http://purl.org/dc/elements/1.1/"
   xmlns:cc="http://creativecommons.org/ns#"
   xmlns:rdf="http://www.w3.org/1999/02/22-rdf-syntax-ns#"
   xmlns:svg="http://www.w3.org/2000/svg"
   xmlns="http://www.w3.org/2000/svg"
   width="48.598515mm"
   height="16.01178mm"
   viewBox="0 0 48.598515 16.01178"
   version="1.1"
   id="svg1112">
  <defs
     id="defs1106" />
  <metadata
     id="metadata1109">
    <rdf:RDF>
      <cc:Work
         rdf:about="">
        <dc:format>image/svg+xml</dc:format>
        <dc:type
           rdf:resource="http://purl.org/dc/dcmitype/StillImage" />
        <dc:title></dc:title>
      </cc:Work>
    </rdf:RDF>
  </metadata>
  <g
     id="layer1"
     transform="translate(-72.282744,-129.06911)"
     style="display:inline">
    <path
       d="m 119.54957,137.45782 h -1.43678 q 0.14368,-0.33908 0.23563,-0.5 0.12644,-0.23563 0.16667,-0.42529 0.069,-0.36781 -0.1954,-0.36781 -0.20115,0 -0.48276,0.4885 -0.27586,0.48276 -0.38506,1.02299 l -0.6954,3.47126 h -2.0977 l 1.16092,-5.7931 0.4023,0.006 q 0.72414,0 1.72414,-0.15517 l -0.18966,0.95402 q 0.70115,-0.95402 1.44253,-0.95402 1.01149,0 0.78735,1.11494 -0.0575,0.2931 -0.22988,0.67241 -0.069,0.15517 -0.2069,0.46552 z"
       style="font-style:normal;font-variant:normal;font-weight:normal;font-stretch:normal;font-size:11.7701px;line-height:1.25;font-family:'Britannic Bold';-inkscape-font-specification:'Britannic Bold, ';text-align:center;letter-spacing:0px;word-spacing:0px;text-anchor:middle;fill:#ffffff;fill-opacity:1;stroke:#00112b;stroke-width:1.5875;stroke-linecap:butt;stroke-linejoin:round;stroke-miterlimit:4;stroke-dasharray:none;stroke-opacity:1;paint-order:stroke markers fill"
       id="path1400" />
    <g
       id="g885"
       style="opacity:1">
      <path
         style="color:#000000;font-style:normal;font-variant:normal;font-weight:normal;font-stretch:normal;font-size:11.7701px;line-height:1.25;font-family:'Britannic Bold';-inkscape-font-specification:'Britannic Bold, ';font-variant-ligatures:normal;font-variant-position:normal;font-variant-caps:normal;font-variant-numeric:normal;font-variant-alternates:normal;font-variant-east-asian:normal;font-feature-settings:normal;font-variation-settings:normal;text-indent:0;text-align:center;text-decoration:none;text-decoration-line:none;text-decoration-style:solid;text-decoration-color:#000000;letter-spacing:0px;word-spacing:0px;text-transform:none;writing-mode:lr-tb;direction:ltr;text-orientation:mixed;dominant-baseline:auto;baseline-shift:baseline;text-anchor:middle;white-space:normal;shape-padding:0;shape-margin:0;inline-size:0;clip-rule:nonzero;display:inline;overflow:visible;visibility:visible;isolation:auto;mix-blend-mode:normal;color-interpolation:sRGB;color-interpolation-filters:linearRGB;solid-color:#000000;solid-opacity:1;vector-effect:none;fill:#00112b;fill-opacity:1;fill-rule:nonzero;stroke:none;stroke-width:1.5875;stroke-linecap:butt;stroke-linejoin:round;stroke-miterlimit:4;stroke-dasharray:none;stroke-dashoffset:0;stroke-opacity:1.0;paint-order:stroke markers fill;color-rendering:auto;image-rendering:auto;shape-rendering:auto;text-rendering:auto;enable-background:accumulate;stop-color:#000000;stop-opacity:1;"
         d="M 108.21094 132.50977 A 0.79382936 0.79382936 0 0 0 107.5 132.94922 L 103.60938 140.79492 A 0.79382936 0.79382936 0 0 0 104.32031 141.94141 L 105.21094 141.94141 A 0.79382936 0.79382936 0 0 0 105.92188 141.49805 L 106.54297 140.24023 L 107.67383 140.24023 L 107.74609 141.20703 A 0.79382936 0.79382936 0 0 0 108.53906 141.94141 L 110.82617 141.94141 A 0.79382936 0.79382936 0 0 0 111.61719 141.08594 L 111.00195 133.24023 A 0.79382936 0.79382936 0 0 0 110.21094 132.50977 L 108.21094 132.50977 z M 108.70312 134.0957 L 109.47656 134.0957 L 109.9668 140.35352 L 109.27539 140.35352 L 109.20312 139.38672 A 0.79382936 0.79382936 0 0 0 109.07227 139.00781 A 0.79382936 0.79382936 0 0 0 109.15234 138.60742 L 108.92188 135.12891 A 0.79382936 0.79382936 0 0 0 108.50977 134.48633 L 108.70312 134.0957 z "
         id="path887" />
      <path
         style="color:#000000;font-style:normal;font-variant:normal;font-weight:normal;font-stretch:normal;font-size:11.7701px;line-height:1.25;font-family:'Britannic Bold';-inkscape-font-specification:'Britannic Bold, ';font-variant-ligatures:normal;font-variant-position:normal;font-variant-caps:normal;font-variant-numeric:normal;font-variant-alternates:normal;font-variant-east-asian:normal;font-feature-settings:normal;font-variation-settings:normal;text-indent:0;text-align:center;text-decoration:none;text-decoration-line:none;text-decoration-style:solid;text-decoration-color:#000000;letter-spacing:0px;word-spacing:0px;text-transform:none;writing-mode:lr-tb;direction:ltr;text-orientation:mixed;dominant-baseline:auto;baseline-shift:baseline;text-anchor:middle;white-space:normal;shape-padding:0;shape-margin:0;inline-size:0;clip-rule:nonzero;display:inline;overflow:visible;visibility:visible;isolation:auto;mix-blend-mode:normal;color-interpolation:sRGB;color-interpolation-filters:linearRGB;solid-color:#000000;solid-opacity:1;vector-effect:none;fill:#ffffff;fill-opacity:1;fill-rule:nonzero;stroke:none;stroke-width:1.5875;stroke-linecap:butt;stroke-linejoin:round;stroke-miterlimit:4;stroke-dasharray:none;stroke-dashoffset:0;stroke-opacity:1;paint-order:stroke markers fill;color-rendering:auto;image-rendering:auto;shape-rendering:auto;text-rendering:auto;enable-background:accumulate;stop-color:#000000;stop-opacity:1"
         d="m 110.82545,141.14747 c -25.695137,-8.05224 -12.847569,-4.02612 0,0 z"
         id="path889" />
    </g>
    <path
       d="m 114.03809,133.10725 q 0.97701,0 0.82183,0.75862 -0.14942,0.75862 -1.12643,0.75862 -0.97701,0 -0.82759,-0.75862 0.15518,-0.75862 1.13219,-0.75862 z m -2.67241,8.04022 1.15517,-5.78735 q 0.98275,0 2.13218,-0.15517 l -1.18966,5.94252 z"
       style="font-style:normal;font-variant:normal;font-weight:normal;font-stretch:normal;font-size:11.7701px;line-height:1.25;font-family:'Britannic Bold';-inkscape-font-specification:'Britannic Bold, ';text-align:center;letter-spacing:0px;word-spacing:0px;text-anchor:middle;fill:#ffffff;fill-opacity:1;stroke:#00112b;stroke-width:1.5875;stroke-linecap:butt;stroke-linejoin:round;stroke-miterlimit:4;stroke-dasharray:none;stroke-opacity:1;paint-order:stroke markers fill"
       id="path1398" />
    <g
       id="g877"
       style="opacity:1">
      <path
         style="color:#000000;font-style:normal;font-variant:normal;font-weight:normal;font-stretch:normal;font-size:11.7701px;line-height:1.25;font-family:'Britannic Bold';-inkscape-font-specification:'Britannic Bold, ';font-variant-ligatures:normal;font-variant-position:normal;font-variant-caps:normal;font-variant-numeric:normal;font-variant-alternates:normal;font-variant-east-asian:normal;font-feature-settings:normal;font-variation-settings:normal;text-indent:0;text-align:center;text-decoration:none;text-decoration-line:none;text-decoration-style:solid;text-decoration-color:#000000;letter-spacing:0px;word-spacing:0px;text-transform:none;writing-mode:lr-tb;direction:ltr;text-orientation:mixed;dominant-baseline:auto;baseline-shift:baseline;text-anchor:middle;white-space:normal;shape-padding:0;shape-margin:0;inline-size:0;clip-rule:nonzero;display:inline;overflow:visible;visibility:visible;isolation:auto;mix-blend-mode:normal;color-interpolation:sRGB;color-interpolation-filters:linearRGB;solid-color:#000000;solid-opacity:1;vector-effect:none;fill:#00112b;fill-opacity:1;fill-rule:nonzero;stroke:none;stroke-width:1.5875;stroke-linecap:butt;stroke-linejoin:round;stroke-miterlimit:4;stroke-dasharray:none;stroke-dashoffset:0;stroke-opacity:1.0;paint-order:stroke markers fill;color-rendering:auto;image-rendering:auto;shape-rendering:auto;text-rendering:auto;enable-background:accumulate;stop-color:#000000;stop-opacity:1;"
         d="M 80.515625 132.38281 C 79.239314 132.38281 78.053523 132.86425 77.095703 133.75586 C 76.137932 134.64349 75.512541 135.82045 75.236328 137.19727 A 0.79382936 0.79382936 0 0 0 75.236328 137.19922 C 74.951648 138.61846 75.011463 139.83092 75.642578 140.74805 C 76.273693 141.66518 77.405108 142.07422 78.716797 142.07422 C 79.774104 142.07422 80.740877 141.80399 81.53125 141.24414 C 82.320983 140.68475 82.857334 139.8668 83.046875 138.92383 A 0.79382936 0.79382936 0 0 0 83.048828 138.91211 C 83.078794 138.74944 83.106689 138.56599 83.134766 138.35742 A 0.79382936 0.79382936 0 0 0 82.558594 137.48633 L 81.638672 137.23242 A 0.79382936 0.79382936 0 0 0 80.636719 137.95312 C 80.61866 138.271 80.590825 138.50487 80.570312 138.60742 C 80.490929 139.00718 80.333866 139.29197 80.074219 139.54102 A 0.79382936 0.79382936 0 0 0 80.072266 139.54297 C 79.816131 139.79118 79.630008 139.85938 79.388672 139.85938 C 79.242161 139.85938 79.203229 139.83375 79.179688 139.81641 C 79.156146 139.79906 79.116685 139.76432 79.070312 139.61914 C 78.977567 139.32878 78.95845 138.63338 79.15625 137.64258 C 79.393358 136.46439 79.693615 135.61366 79.982422 135.13281 C 80.271228 134.65197 80.430668 134.5957 80.589844 134.5957 C 80.888354 134.5957 80.852241 134.62285 80.865234 134.64453 C 80.878228 134.66621 80.948255 134.90215 80.851562 135.38086 A 0.79382936 0.79382936 0 0 0 80.849609 135.39648 C 80.832305 135.49167 80.795442 135.66003 80.740234 135.88086 A 0.79382936 0.79382936 0 0 0 81.818359 136.80469 L 82.880859 136.35547 A 0.79382936 0.79382936 0 0 0 83.351562 135.7793 C 83.540286 134.83346 83.46056 133.9323 82.910156 133.27734 C 82.359752 132.62239 81.491498 132.38281 80.515625 132.38281 z M 78.486328 134.71484 C 78.126619 135.41945 77.822634 136.22187 77.599609 137.33008 A 0.79382936 0.79382936 0 0 0 77.599609 137.33203 C 77.375954 138.45234 77.314175 139.33832 77.558594 140.10352 C 77.587754 140.19481 77.679869 140.25217 77.720703 140.33984 C 77.368172 140.22986 77.105053 140.07127 76.951172 139.84766 C 76.681905 139.45636 76.552745 138.70738 76.792969 137.50977 C 77.01473 136.40437 77.471366 135.5724 78.175781 134.91992 A 0.79382936 0.79382936 0 0 0 78.175781 134.91797 C 78.275397 134.82524 78.385184 134.79323 78.486328 134.71484 z "
         id="path879" />
    </g>
    <path
       id="path111"
       style="display:inline;fill:#ffffff;fill-opacity:1;stroke:#00112b;stroke-width:1.5875;stroke-linecap:butt;stroke-linejoin:round;stroke-miterlimit:4;stroke-dasharray:none;stroke-opacity:1;paint-order:stroke markers fill"
       d="m 97.878367,142.07441 -21.334097,0.01 c -0.0209,5e-5 -0.04163,-7e-5 -0.06253,0 -0.68788,0.0174 -1.034592,-0.83121 -1.845882,-0.84336 v 0 c -0.0399,-5.3e-4 -0.0807,3.4e-4 -0.122989,0.005 -0.39302,2e-5 -0.770403,0.15472 -1.052133,0.43098 l 1.027328,0.27544 c 0.22207,0.0595 0.320862,0.40555 0.221692,0.77566 l -0.05426,0.20412 c -0.0992,0.37012 -0.357739,0.62018 -0.579809,0.56069 l -1.000456,-0.2682 c 0.19771,0.63297 0.964897,1.06376 1.623157,1.06454 0.538,0.0164 0.825069,-0.76192 1.651579,-0.82528 0.0648,2e-5 0.129533,1e-5 0.194303,0 l 21.057629,-0.004 3.117641,-5e-4 15.85743,-0.003 h 0.21652 c 0.64816,0.0732 1.00386,0.90731 1.85725,0.83355 0.39303,-1e-5 0.7704,-0.15421 1.05214,-0.43047 l -1.02733,-0.27543 c -0.22207,-0.0595 -0.32138,-0.40556 -0.22221,-0.77567 l 0.0548,-0.20412 c 0.0992,-0.37012 0.35775,-0.6202 0.57981,-0.56069 l 1.00045,0.2682 c -0.19771,-0.63299 -0.96489,-1.06377 -1.62315,-1.06453 v -1e-5 c -0.52487,-0.0161 -0.81109,0.72355 -1.59216,0.81855 -0.0987,1.4e-4 -0.19744,2.6e-4 -0.2961,5.3e-4 l -15.58096,0.007 z" />
    <path
       d="m 97.41167,141.14747 h -2.097698 l 0.867815,-4.35057 q 0.114942,-0.56897 -0.218391,-0.56897 -0.770113,0 -1.097699,1.63793 l -0.655172,3.28161 h -2.097698 l 0.850573,-4.25862 q 0.132184,-0.64942 -0.166666,-0.64942 -0.781608,0 -1.109194,1.63218 l -0.655172,3.27586 H 88.93467 l 1.160918,-5.81034 q 1.063217,0 2.126434,-0.14368 l -0.201149,1 q 0.942527,-0.99425 2.028733,-0.99425 0.908045,0 1.160918,0.93678 0.890803,-0.94827 1.942526,-0.94827 1.448274,0 1.155171,1.46551 z"
       style="font-style:normal;font-variant:normal;font-weight:normal;font-stretch:normal;font-size:11.7701px;line-height:1.25;font-family:'Britannic Bold';-inkscape-font-specification:'Britannic Bold, ';text-align:center;letter-spacing:0px;word-spacing:0px;text-anchor:middle;fill:#ff6600;fill-opacity:1;stroke:#00112b;stroke-width:1.5875;stroke-linecap:butt;stroke-linejoin:round;stroke-miterlimit:4;stroke-dasharray:none;stroke-opacity:1;paint-order:stroke markers fill"
       id="path1392" />
    <path
       d="m 86.354213,135.20495 q 2.87356,0 2.264365,3.03448 -0.603448,3.03447 -3.477007,3.03447 -2.879307,0 -2.275859,-3.03447 0.609194,-3.03448 3.488501,-3.03448 z m -0.109195,0.51149 q -0.695402,0 -1.201148,2.52299 -0.505747,2.52298 0.189655,2.52298 0.701148,0 1.206895,-2.52298 0.505746,-2.52299 -0.195402,-2.52299 z"
       style="font-style:normal;font-variant:normal;font-weight:normal;font-stretch:normal;font-size:11.7701px;line-height:1.25;font-family:'Britannic Bold';-inkscape-font-specification:'Britannic Bold, ';text-align:center;letter-spacing:0px;word-spacing:0px;text-anchor:middle;fill:#ff6600;fill-opacity:1;stroke:#00112b;stroke-width:1.5875;stroke-linecap:butt;stroke-linejoin:round;stroke-miterlimit:4;stroke-dasharray:none;stroke-opacity:1;paint-order:stroke markers fill"
       id="path1390" />
    <path
       d="m 81.428932,137.99805 0.919539,0.25287 q -0.04023,0.29885 -0.08046,0.51724 -0.229885,1.14368 -1.195401,1.82758 -0.965516,0.68391 -2.356319,0.68391 -3.488501,0 -2.701146,-3.92528 0.373563,-1.86207 1.620688,-3.01724 1.247124,-1.16092 2.879306,-1.16092 2.545974,0 2.057469,2.44828 l -1.063217,0.44827 q 0.08621,-0.34483 0.120689,-0.53448 0.350575,-1.73563 -1.040228,-1.73563 -1.471263,0 -2.212641,3.6839 -0.632183,3.16667 1.011493,3.16667 0.67816,0 1.23563,-0.54023 0.563218,-0.54023 0.724137,-1.35058 0.05173,-0.25862 0.08046,-0.76436 z"
       style="font-style:normal;font-variant:normal;font-weight:normal;font-stretch:normal;font-size:11.7701px;line-height:1.25;font-family:'Britannic Bold';-inkscape-font-specification:'Britannic Bold, ';text-align:center;letter-spacing:0px;word-spacing:0px;text-anchor:middle;display:inline;fill:#ff6600;fill-opacity:1;stroke:none;stroke-width:1.5875;stroke-linecap:butt;stroke-linejoin:round;stroke-miterlimit:4;stroke-dasharray:none;stroke-opacity:1;paint-order:stroke markers fill"
       id="path1078" />
    <path
       style="color:#000000;font-style:normal;font-variant:normal;font-weight:normal;font-stretch:normal;font-size:medium;line-height:normal;font-family:sans-serif;font-variant-ligatures:normal;font-variant-position:normal;font-variant-caps:normal;font-variant-numeric:normal;font-variant-alternates:normal;font-variant-east-asian:normal;font-feature-settings:normal;font-variation-settings:normal;text-indent:0;text-align:start;text-decoration:none;text-decoration-line:none;text-decoration-style:solid;text-decoration-color:#000000;letter-spacing:normal;word-spacing:normal;text-transform:none;writing-mode:lr-tb;direction:ltr;text-orientation:mixed;dominant-baseline:auto;baseline-shift:baseline;text-anchor:start;white-space:normal;shape-padding:0;shape-margin:0;inline-size:0;clip-rule:nonzero;display:inline;overflow:visible;visibility:visible;isolation:auto;mix-blend-mode:normal;color-interpolation:sRGB;color-interpolation-filters:linearRGB;solid-color:#000000;solid-opacity:1;vector-effect:none;fill:#ff6600;fill-opacity:1;fill-rule:nonzero;stroke:#00112b;stroke-width:1.5875;stroke-linecap:butt;stroke-linejoin:round;stroke-miterlimit:4;stroke-dasharray:none;stroke-dashoffset:0;stroke-opacity:1;paint-order:stroke markers fill;color-rendering:auto;image-rendering:auto;shape-rendering:auto;text-rendering:auto;enable-background:accumulate;stop-color:#000000"
       d="m 90.081868,129.8627 -15.167968,2.16406 0.142578,0.99023 15.02539,-2.14453 15.025392,2.15234 0.14062,-0.99023 z"
       id="path987" />
    <path
       d="m 98.181783,143.10724 0.179096,-0.89748 1.366879,-6.84964 c 0.593872,0 1.304592,-0.0498 2.132182,-0.14943 l -0.17816,0.87357 c 0.51341,-0.58621 1.05172,-0.87931 1.61494,-0.87931 0.60153,0 1.02682,0.27586 1.27586,0.82758 0.24904,0.54789 0.28161,1.28353 0.0977,2.2069 -0.40613,2.04214 -1.28927,3.06321 -2.64942,3.06321 -0.55939,0 -0.97701,-0.21073 -1.25287,-0.63218 l -0.48851,2.43678 z m 4.178157,-7.05747 c -0.4636,0 -0.83908,0.72031 -1.12644,2.16092 -0.29885,1.49808 -0.22605,2.24712 0.21839,2.24712 0.39847,0 0.74713,-0.74904 1.04598,-2.24712 0.28735,-1.44061 0.24138,-2.16092 -0.13793,-2.16092 z"
       style="font-style:normal;font-variant:normal;font-weight:normal;font-stretch:normal;font-size:11.7701px;line-height:1.25;font-family:'Britannic Bold';-inkscape-font-specification:'Britannic Bold, ';text-align:center;letter-spacing:0px;word-spacing:0px;text-anchor:middle;fill:#ff6600;fill-opacity:1;stroke:#00112b;stroke-width:1.5875;stroke-linecap:butt;stroke-linejoin:round;stroke-miterlimit:4;stroke-dasharray:none;stroke-opacity:1;paint-order:stroke markers fill"
       id="path1394" />
    <path
       d="m 110.2105,133.30265 0.61495,7.84482 h -2.28736 l -0.12644,-1.70115 h -2.36206 l -0.83908,1.70115 h -0.8908 l 3.8908,-7.84482 z m -3.77585,5.35632 h 1.92528 l -0.22988,-3.47701 z"
       style="font-style:normal;font-variant:normal;font-weight:normal;font-stretch:normal;font-size:11.7701px;line-height:1.25;font-family:'Britannic Bold';-inkscape-font-specification:'Britannic Bold, ';text-align:center;letter-spacing:0px;word-spacing:0px;text-anchor:middle;display:inline;fill:#ffffff;fill-opacity:1;stroke:none;stroke-width:1.5875;stroke-linecap:butt;stroke-linejoin:round;stroke-miterlimit:4;stroke-dasharray:none;stroke-opacity:1;paint-order:stroke markers fill"
       id="path1396" />
  </g>
  <g
     id="layer2"
     style="display:inline"
     transform="translate(-4.9410125,-0.89720814)" />
</svg>
